<svg xmlns="http://www.w3.org/2000/svg" width="40" height="40" viewBox="0 0 21.381 22.497"><g transform="translate(-328.132 -122.072)"><g transform="translate(328.132 124.694)"><g transform="translate(0 0)"><path d="M320.222,453.283h-.047l-1.839-.567-2.016.567h-.047a.551.551,0,0,1-.389-.161l-1.054-1.054a.551.551,0,0,1-.161-.389v-.047l.522-2.069-.522-1.786v-.047a.551.551,0,0,1,.161-.389l1.054-1.054a.551.551,0,0,1,.389-.161h.047l1.825.383,2.03-.383h.047a.551.551,0,0,1,.389.161l1.054,1.054a.551.551,0,0,1,.161.389v.047l-.444,1.778.444,2.077v.047a.55.55,0,0,1-.161.389l-1.054,1.054a.55.55,0,0,1-.389.161Zm0,0" transform="translate(-314.668 -446.124)" fill="#00213b"/><rect width="1.652" height="3.855" transform="translate(5.507 1.652)" fill="#003e6d"/><rect width="1.652" height="3.855" transform="translate(0 1.652)" fill="#285d86"/><rect width="3.855" height="1.652" transform="translate(1.652 0)" fill="#003e6d"/><rect width="3.855" height="1.652" transform="translate(1.652 5.507)" fill="#285d86"/><path d="M367.289,499.3h-1.652a.551.551,0,0,1-.551-.551V497.1a.551.551,0,0,1,.551-.551h1.652a.55.55,0,0,1,.551.551v1.652a.551.551,0,0,1-.551.551Zm0,0" transform="translate(-362.883 -494.343)" fill="#3882ba"/></g></g><g transform="translate(334.229 133.235) rotate(19)"><g transform="translate(0)"><path d="M6.918,8.917H6.859L4.568,8.211l-2.511.706H2a.686.686,0,0,1-.485-.2L.2,7.4A.686.686,0,0,1,0,6.918V6.859L.65,4.283,0,2.058V2a.686.686,0,0,1,.2-.485L1.514.2A.686.686,0,0,1,2,0h.059L4.33.477,6.859,0h.059A.686.686,0,0,1,7.4.2L8.716,1.514a.686.686,0,0,1,.2.485v.059L8.364,4.273l.553,2.586v.059a.686.686,0,0,1-.2.485L7.4,8.716a.685.685,0,0,1-.485.2Zm0,0" transform="translate(0 0)" fill="#00213b"/><rect width="2.058" height="4.801" transform="translate(6.859 2.058)" fill="#003e6d"/><rect width="2.058" height="4.801" transform="translate(0 2.058)" fill="#285d86"/><rect width="4.801" height="2.058" transform="translate(2.058 0)" fill="#003e6d"/><rect width="4.801" height="2.058" transform="translate(2.058 6.859)" fill="#285d86"/><path d="M2.744,3.43H.686A.686.686,0,0,1,0,2.743V.686A.686.686,0,0,1,.686,0H2.744a.686.686,0,0,1,.686.686V2.744a.686.686,0,0,1-.686.686Zm0,0" transform="translate(2.744 2.744)" fill="#3882ba"/></g></g><g transform="translate(339.66 122.072)"><path d="M1072.987,179.532l.385,2.341,2.341.385-2.341.386-.385,2.341-.386-2.341-2.344-.386,2.344-.385Z" transform="translate(-1068.057 -177.331)" fill="#3882ba"/><path d="M1070.7,184.9l-.7-4.231-4.233-.7,4.233-.7.7-4.231.7,4.231,4.227.7-4.227.7Zm-.53-4.927.455.075.075.452.074-.452.455-.075-.455-.075-.074-.452-.075.452Z" transform="translate(-1065.773 -175.046)" fill="#3882ba"/></g></g></svg>