<svg xmlns="http://www.w3.org/2000/svg" xmlns:xlink="http://www.w3.org/1999/xlink" width="234" height="273" viewBox="0 0 234 273">
  <defs>
    <clipPath id="clip-path">
      <rect y="44" width="234" height="273" fill="none"/>
    </clipPath>
    <clipPath id="clip-path-2">
      <rect id="Recurso_1" data-name="Recurso 1" width="234" height="361" rx="97" transform="translate(10723 -761)" fill="none" stroke="#707070" stroke-width="1"/>
    </clipPath>
    <clipPath id="clip-path-3">
      <rect width="234.033" height="279.292" fill="none"/>
    </clipPath>
    <clipPath id="clip-path-4">
      <rect y="7" width="283.033" height="279.292" fill="none"/>
    </clipPath>
    <clipPath id="clip-path-5">
      <rect id="Rectángulo_51" data-name="Rectángulo 51" width="286.292" height="283.033" transform="translate(0 286.292) rotate(-90)" fill="none"/>
    </clipPath>
  </defs>
  <g id="Grupo_de_desplazamiento_24" data-name="Grupo de desplazamiento 24" transform="translate(0 -44)" clip-path="url(#clip-path)" style="isolation: isolate">
    <g id="Enmascarar_grupo_1442" data-name="Enmascarar grupo 1442" transform="translate(-10723 761)" clip-path="url(#clip-path-2)">
      <g id="Grupo_de_desplazamiento_23" data-name="Grupo de desplazamiento 23" transform="translate(10723 -720.146)" clip-path="url(#clip-path-3)" style="isolation: isolate">
        <g id="Grupo_728" data-name="Grupo 728" transform="translate(283.033 286.292) rotate(180)">
          <g id="Grupo_de_desplazamiento_22" data-name="Grupo de desplazamiento 22" transform="translate(0)" clip-path="url(#clip-path-4)" style="isolation: isolate">
            <g id="Grupo_727" data-name="Grupo 727" transform="translate(0)" clip-path="url(#clip-path-5)">
              <path id="Trazado_294" data-name="Trazado 294" d="M8.625,165.133S44,163.817,44,155.265V9.888S44,3.309,10.487.021C-11.969-2.183,8.625,165.133,8.625,165.133Z" transform="translate(254.857 57.217)" fill="#0c0c0c"/>
              <g id="Grupo_726" data-name="Grupo 726" transform="translate(57.101 11.506)">
                <g id="Grupo_700" data-name="Grupo 700" transform="translate(9.268 15.492)">
                  <g id="Grupo_697" data-name="Grupo 697">
                    <g id="Grupo_696" data-name="Grupo 696">
                      <path id="Trazado_295" data-name="Trazado 295" d="M25.267,2.432C-1,10.834,0,39.341.007,39.587c.5,21.12,18.63,33.335,19.382,33.839l1.336.88L71.4,14.368,70.026,13.2C51.035-2.829,36.747-1.237,25.267,2.432Z"/>
                    </g>
                  </g>
                  <g id="Grupo_699" data-name="Grupo 699" transform="translate(0 158.197)">
                    <g id="Grupo_698" data-name="Grupo 698">
                      <path id="Trazado_296" data-name="Trazado 296" d="M25.267,71.871C-1,63.472,0,34.968.007,34.719.507,13.6,18.637,1.389,19.39.884L20.726,0,71.4,59.94,70.026,61.1C51.035,77.136,36.747,75.543,25.267,71.871Z"/>
                    </g>
                  </g>
                </g>
                <g id="Grupo_701" data-name="Grupo 701">
                  <path id="Trazado_297" data-name="Trazado 297" d="M180.389,3.024c19.43,5.986,33.042,18.886,42.357,34.919C230.293,50.916,235,65.976,237.707,81.125c3.885,21.779,7.267,43.014,4.862,65.149-2.568,23.487-7.883,46.39-14.249,69.109-.4,1.408-.808,2.812-1.24,4.221-.132.416-13.1,40.985-52.605,49.66-1.089.244-26.885,5.614-51.028-19.506l-8.3-7.643c-1.5-1.387-9.763-.976-11.848-1.3a147.125,147.125,0,0,1-22.7-5.5C49.323,225.07,25.5,191.86,18.462,160.242a30.942,30.942,0,0,1-1.053-6.571c-.056-1.992-.884-2.481-1.144-2.628-1.092-.641-3.1-.489-5.069.336a8.058,8.058,0,0,0-1.088.508c-1.412.768-2.857,1.973-4.413,2.35.864-.208,1.428-3.757,1.784-4.526a10.372,10.372,0,0,1,2.929-3.773,16.285,16.285,0,0,1,1.929-1.212c.748-.428,1.9-.925,2.008-1.9.108-.928-.8-1.885-1.324-2.549a8.48,8.48,0,0,0-5.743-3.613c-2.428-.292-4.857.356-7.278.208.845-.88,1.656-1.789,2.485-2.685.916-.976,1.8-1.969,2.665-2.964-.864-1.017-1.748-1.993-2.665-2.985-.825-.893-1.729-1.76-2.477-2.709.256.324,2.981-.024,3.465-.04a27.649,27.649,0,0,0,3.69-.336,10.69,10.69,0,0,0,6.1-2.821c2.341-2.436-.572-3.517-2.253-4.921-.82-.685-1.472-1.573-2.22-2.333-1.8-1.84-2.345-4.638-3.286-6.946,1.617.24,3.173,1.668,4.6,2.421.356.188.732.355,1.088.508,1.968.8,3.978.957,5.069.337.26-.169,1.088-.641,1.144-2.63C17.989,88.244,33.591,66.484,45.4,50.88c14.116-18.663,34.862-24.068,56.718-28.4,10.043-1.992,14.269-5.974,22.751-11.14a87.054,87.054,0,0,1,16.3-7.994C153.952-1.165,167.489-.958,180.389,3.024Z" fill="#f8f8f8"/>
                </g>
                <g id="Grupo_702" data-name="Grupo 702" transform="translate(153.477 117.163)">
                  <path id="Trazado_298" data-name="Trazado 298" d="M3.109.186A4.924,4.924,0,0,0,0,3.907v22.71c.328,1.741,1.616,5.43,6.63,3.93a7.741,7.741,0,0,0,2.789-2.137,18.862,18.862,0,0,0,4.557-8.231,18.789,18.789,0,0,0,.568-3.889,18.784,18.784,0,0,0-5.125-13.8A7.616,7.616,0,0,0,6.63.382,6.109,6.109,0,0,0,3.109.186Z" fill-rule="evenodd"/>
                </g>
                <g id="Grupo_703" data-name="Grupo 703" transform="translate(80.946 33.253)">
                  <path id="Trazado_299" data-name="Trazado 299" d="M60.006,71.131c-4.437-9.023-6.582-19.205-7.158-29.309A146.505,146.505,0,0,1,55.328,4.707,32.731,32.731,0,0,0,32.769.485C13.971,3.7-2.418,26.349.3,45.367c.1.688.208,1.38.328,2.068,2.841,16.461,12.345,34.7,30.49,36.532a32.707,32.707,0,0,0,8.718-.332C47.862,82.291,54.7,77.589,60.006,71.131Z"/>
                </g>
                <g id="Grupo_704" data-name="Grupo 704" transform="translate(80.946 145.008)">
                  <path id="Trazado_300" data-name="Trazado 300" d="M62.271,15.982C56.705,8.007,49.059,2.029,39.831.485A32.677,32.677,0,0,0,31.113.153C12.967,1.978,3.464,20.223.623,36.684.5,37.373.395,38.064.3,38.749-2.418,57.77,13.971,80.418,32.769,83.639a32.718,32.718,0,0,0,23.763-5.03A100.578,100.578,0,0,1,62.271,15.982Z"/>
                </g>
                <g id="Grupo_706" data-name="Grupo 706" transform="translate(105.685 102.84)">
                  <g id="Grupo_705" data-name="Grupo 705">
                    <path id="Trazado_301" data-name="Trazado 301" d="M24.78,0V10.639c-8.762,0-15.893,8.531-15.893,19.019S16.018,48.679,24.78,48.679V59.315C11.116,59.315,0,46.01,0,29.658S11.116,0,24.78,0Z"/>
                  </g>
                </g>
                <g id="Grupo_707" data-name="Grupo 707" transform="translate(148.507 187.811)">
                  <path id="Trazado_302" data-name="Trazado 302" d="M4.033,0C6.258,0,8.062,5.865,8.062,13.1s-1.8,13.1-4.029,13.1S0,20.338,0,13.1,1.8,0,4.033,0Z" fill="#ff3f3f"/>
                </g>
                <g id="Grupo_708" data-name="Grupo 708" transform="translate(148.507 49.743)">
                  <path id="Trazado_303" data-name="Trazado 303" d="M4.033,0C6.258,0,8.062,5.866,8.062,13.1s-1.8,13.1-4.029,13.1S0,20.338,0,13.1,1.8,0,4.033,0Z" fill="#ff3f3f"/>
                </g>
                <g id="Grupo_710" data-name="Grupo 710" transform="translate(154.938 127.083)">
                  <g id="Grupo_709" data-name="Grupo 709">
                    <path id="Trazado_304" data-name="Trazado 304" d="M1.881.077C.011-.689.059,4.464.027,5.643c-.032,1.4-.234,4.719,1.253,5.569C2.6,11.968,3.552,9.564,3.8,8.619c.536-2.055.517-6.19-.992-7.823A2.771,2.771,0,0,0,1.881.077Z" fill="#232323" fill-rule="evenodd"/>
                  </g>
                </g>
                <g id="Grupo_717" data-name="Grupo 717" transform="translate(96.408 55.762)">
                  <g id="Grupo_712" data-name="Grupo 712">
                    <g id="Grupo_711" data-name="Grupo 711">
                      <path id="Trazado_305" data-name="Trazado 305" d="M24.175,41.016A20.656,20.656,0,1,1,41.021,17.144,20.66,20.66,0,0,1,24.175,41.016Z" fill="#fff" fill-rule="evenodd"/>
                    </g>
                  </g>
                  <g id="Grupo_714" data-name="Grupo 714" transform="translate(4.849 4.962)">
                    <g id="Grupo_713" data-name="Grupo 713">
                      <path id="Trazado_306" data-name="Trazado 306" d="M18.872,32.017A16.125,16.125,0,1,1,32.017,13.378,16.128,16.128,0,0,1,18.872,32.017Z" fill-rule="evenodd"/>
                    </g>
                  </g>
                  <g id="Grupo_716" data-name="Grupo 716" transform="translate(27.023 25.47)">
                    <g id="Grupo_715" data-name="Grupo 715">
                      <path id="Trazado_307" data-name="Trazado 307" d="M4.744,8.048a4.053,4.053,0,1,1,3.3-4.686A4.049,4.049,0,0,1,4.744,8.048Z" fill="#fff" fill-rule="evenodd"/>
                    </g>
                  </g>
                </g>
                <g id="Grupo_724" data-name="Grupo 724" transform="translate(96.408 165.762)">
                  <g id="Grupo_719" data-name="Grupo 719">
                    <g id="Grupo_718" data-name="Grupo 718">
                      <path id="Trazado_308" data-name="Trazado 308" d="M24.175.3A20.658,20.658,0,1,0,41.021,24.178,20.659,20.659,0,0,0,24.175.3Z" fill="#fff" fill-rule="evenodd"/>
                    </g>
                  </g>
                  <g id="Grupo_721" data-name="Grupo 721" transform="translate(4.849 4.106)">
                    <g id="Grupo_720" data-name="Grupo 720">
                      <path id="Trazado_309" data-name="Trazado 309" d="M18.872.238A16.124,16.124,0,1,0,32.017,18.87,16.124,16.124,0,0,0,18.872.238Z" fill-rule="evenodd"/>
                    </g>
                  </g>
                  <g id="Grupo_723" data-name="Grupo 723" transform="translate(26.233 7.32)">
                    <g id="Grupo_722" data-name="Grupo 722">
                      <path id="Trazado_310" data-name="Trazado 310" d="M4.745.06a4.053,4.053,0,1,0,3.3,4.685A4.053,4.053,0,0,0,4.745.06Z" fill="#fff" fill-rule="evenodd"/>
                    </g>
                  </g>
                </g>
                <g id="Grupo_725" data-name="Grupo 725" transform="translate(119.717 0.128)">
                  <path id="Trazado_311" data-name="Trazado 311" d="M21.667,3.344A86.91,86.91,0,0,0,5.372,11.339C3.39,12.545,1.649,13.679,0,14.746c.377.115.752.227,1.128.346A77.863,77.863,0,0,1,28.989,9.9c43.554,0,79.9,36.342,79.9,79.9a77.748,77.748,0,0,1-.993,12.159l.012.037c.822,2.128,1.585,4.289,2.257,6.5,3.533,11.583,4.227,24.254,4.232,36.385a78,78,0,0,1-5.7,29.218c.116,1.722.188,3.456.188,5.207,0,43.555-36.344,79.9-79.9,79.9a77.815,77.815,0,0,1-16.463-1.77c21.313,16.239,41.488,12.051,42.447,11.835,39.5-8.672,52.475-49.243,52.607-49.657q.648-2.112,1.238-4.223c6.366-22.72,11.68-45.624,14.25-69.11,2.4-22.135-.975-43.37-4.863-65.147-2.7-15.151-7.414-30.21-14.961-43.181C93.932,21.91,80.32,9.01,60.887,3.024,47.99-.957,34.454-1.166,21.667,3.344Z" fill="#e5e5e5"/>
                </g>
              </g>
              <path id="Trazado_312" data-name="Trazado 312" d="M.144,24.672c-.453,8.156.048,17,3.119,24.721,3.8,9.561,11.676,13.884,18.5,20.793a92.923,92.923,0,0,1,6.392,7.35c2.179,2.73,4.588,5.419,6.256,8.52a28.811,28.811,0,0,1,3.042,17.195q-.183,1.521-.39,3.047s-.628,10.125-1.178,13.51,9.633-2.708,9.633-2.708,12.247-6.614,15.379-8.456c.177-.1.246-.2.241-.3a60.009,60.009,0,0,0,7.405-5.519c8.434-7.39,14.652-17.688,14.384-29.292a36.061,36.061,0,0,0-1.787-10.242c-4.614-14.264-13.9-23.107-23.206-34.143-6.346-7.521-11.692-16.08-19.208-22.482C22.182-7.436,1.407,1.9.144,24.672Z" transform="translate(227.568 143.631)" fill="#010101"/>
              <path id="Trazado_313" data-name="Trazado 313" d="M34.686.1h.01l.112.028c2.849.6,7.765,3.314,7.765,3.314S55.03,9.63,58.223,11.362c.186.1.251.2.251.3a58.907,58.907,0,0,1,7.588,5.261,48.107,48.107,0,0,1,7.429,7.523,35.814,35.814,0,0,1,7.774,18.378,26.909,26.909,0,0,1,.177,2.886A36.248,36.248,0,0,1,80,56a55.1,55.1,0,0,1-4.422,10.884c-.652,1.248-1.359,2.449-2.086,3.631-.3.484-.6.969-.922,1.444-1.7,2.635-3.566,5.158-5.521,7.653-.056.075-.112.14-.167.214-1.732,2.216-3.529,4.413-5.344,6.657-1.192,1.453-2.374,2.923-3.566,4.432-.354.456-.708.912-1.052,1.369C51.287,99.661,46.4,107.77,39.537,114.036a30.159,30.159,0,0,1-5.624,4.1C24.789,123.263,15,121.9,8.338,115.507,4.056,111.4,1.067,105.219.359,97.352-.367,89.215-.172,80.37,2.64,72.54c3.473-9.683,11.191-14.272,17.782-21.4a92.223,92.223,0,0,0,6.135-7.569c2.086-2.8,4.4-5.568,5.968-8.724a28.548,28.548,0,0,0,2.561-16.451v-.01c-.028-.279-.065-.549-.112-.828-.149-1.006-.317-2.02-.493-3.035,0,0-.968-10.093-1.629-13.463C32.647.031,33.467-.146,34.686.1Z" transform="translate(230.956 31.019)" fill="#010101"/>
            </g>
          </g>
        </g>
      </g>
    </g>
  </g>
</svg>
