<svg xmlns="http://www.w3.org/2000/svg" width="40" height="40" viewBox="0 0 22.48 24.733"><g transform="translate(-173.795 -127.599)"><g transform="translate(182.444 133.665) rotate(-38)"><path d="M1072.987,179.532l.385,2.341,2.341.385-2.341.386-.385,2.341-.386-2.341-2.344-.386,2.344-.385Z" transform="translate(-1068.057 -177.331)" fill="#ff3f3f"/><path d="M1070.7,184.9l-.7-4.231-4.233-.7,4.233-.7.7-4.231.7,4.231,4.227.7-4.227.7Zm-.53-4.927.455.075.075.452.074-.452.455-.075-.455-.075-.074-.452-.075.452Z" transform="translate(-1065.773 -175.046)" fill="#ff3f3f"/></g><g transform="translate(34.179 114.335) rotate(-38)"><g transform="translate(94 111)"><path d="M140.378,236.208l-4.019-2.319a.731.731,0,0,0-.365-.1l-3.626,3.049v4.636l3.627,3.049a.73.73,0,0,0,.365-.1l4.019-2.318a.731.731,0,0,0,.267-.268v-5.367a.731.731,0,0,0-.268-.268Zm0,0" transform="translate(-131.247 -233.792)" fill="#ff3f3f"/><path d="M114.97,356.049a.731.731,0,0,1-.267-.266l1.8-1.041,2.848,1.279v2.445a.73.73,0,0,1-.365-.1Zm0,0" transform="translate(-114.607 -347.73)" fill="#c33"/><path d="M113.055,280.406V285.1a.73.73,0,0,0,.1.34l1.8-1.041v-3.288l-1.8-1.041a.728.728,0,0,0-.1.34Zm0,0" transform="translate(-113.055 -277.383)" fill="#802020"/><path d="M246,285.125v-4.689a.723.723,0,0,0-.1-.339l-1.8,1.039v3.288l1.8,1.039a.728.728,0,0,0,.1-.339Zm0,0" transform="translate(-236.508 -277.413)" fill="#ff8c8c"/><path d="M114.97,236.208a.731.731,0,0,0-.267.266l1.8,1.041,2.848-1.279v-2.445a.731.731,0,0,0-.365.1Zm0,0" transform="translate(-114.607 -233.792)" fill="#c33"/><path d="M147.427,268.222l-2.923,1.686v3.371l2.923,1.686,2.923-1.686v-3.371Zm0,0" transform="translate(-142.681 -266.226)" fill="#c33"/><path d="M157.4,280.425l-2.31,1.332v2.663l2.31,1.332,2.309-1.332v-2.663Zm0,0" transform="translate(-152.649 -277.722)" fill="#ff8c8c"/></g></g><g transform="translate(31.335 102.984) rotate(-38)"><g transform="translate(94 111)"><path d="M137.585,235.366l-2.618-1.51a.476.476,0,0,0-.238-.064l-2.362,1.986v3.02l2.362,1.986a.476.476,0,0,0,.238-.064l2.618-1.51a.476.476,0,0,0,.174-.174v-3.5a.476.476,0,0,0-.174-.174Zm0,0" transform="translate(-131.638 -233.792)" fill="#ff3f3f"/><path d="M114.877,355.593a.476.476,0,0,1-.174-.173l1.175-.678,1.855.833v1.592a.476.476,0,0,1-.238-.064Zm0,0" transform="translate(-114.641 -350.174)" fill="#c33"/><path d="M113.055,280.288v3.055a.476.476,0,0,0,.062.222l1.174-.678v-2.142l-1.174-.678a.474.474,0,0,0-.062.222Zm0,0" transform="translate(-113.055 -278.319)" fill="#802020"/><path d="M245.342,283.372v-3.055a.471.471,0,0,0-.064-.221l-1.173.677v2.142l1.173.677a.474.474,0,0,0,.064-.221Zm0,0" transform="translate(-239.156 -278.348)" fill="#ff8c8c"/><path d="M114.877,235.366a.476.476,0,0,0-.174.173l1.175.678,1.855-.833v-1.593a.476.476,0,0,0-.238.064Zm0,0" transform="translate(-114.641 -233.792)" fill="#c33"/><path d="M146.408,268.222l-1.9,1.1v2.2l1.9,1.1,1.9-1.1v-2.2Zm0,0" transform="translate(-143.316 -266.922)" fill="#c33"/><path d="M156.591,280.425l-1.5.868v1.735l1.5.868,1.5-.868v-1.735Zm0,0" transform="translate(-153.499 -278.664)" fill="#ff8c8c"/></g></g></g></svg>