<svg id="Grupo_1705" data-name="Grupo 1705" xmlns="http://www.w3.org/2000/svg" xmlns:xlink="http://www.w3.org/1999/xlink" width="237.347" height="234.645" viewBox="0 0 237.347 234.645">
  <defs>
    <clipPath id="clip-path">
      <rect id="Rectángulo_255" data-name="Rectángulo 255" width="237.347" height="234.645" fill="none"/>
    </clipPath>
  </defs>
  <g id="Grupo_1704" data-name="Grupo 1704" clip-path="url(#clip-path)">
    <path id="Trazado_3112" data-name="Trazado 3112" d="M1361.179,877.886s1.091,29.331,8.181,29.331h120.523s5.454,0,8.18-27.787C1499.89,860.813,1361.179,877.886,1361.179,877.886Z" transform="translate(-1308.168 -659.45)" fill="#0c0c0c"/>
    <g id="Grupo_1703" data-name="Grupo 1703" transform="translate(3.942 47.339)">
      <g id="Grupo_1677" data-name="Grupo 1677" transform="translate(18.268 7.683)">
        <g id="Grupo_1674" data-name="Grupo 1674" transform="translate(131.151)">
          <g id="Grupo_1673" data-name="Grupo 1673">
            <path id="Trazado_3113" data-name="Trazado 3113" d="M1550.777,689.233c-6.966-21.774-30.6-20.951-30.8-20.941-17.508.415-27.636,15.445-28.054,16.068l-.729,1.108,49.692,42.009.966-1.138C1555.139,710.6,1553.819,698.75,1550.777,689.233Z" transform="translate(-1491.19 -668.285)"/>
          </g>
        </g>
        <g id="Grupo_1676" data-name="Grupo 1676">
          <g id="Grupo_1675" data-name="Grupo 1675">
            <path id="Trazado_3114" data-name="Trazado 3114" d="M1323.293,689.233c6.963-21.774,30.594-20.951,30.8-20.941,17.508.415,27.632,15.445,28.05,16.068l.733,1.108-49.692,42.009-.965-1.138C1318.928,710.6,1320.248,698.75,1323.293,689.233Z" transform="translate(-1321.274 -668.285)"/>
          </g>
        </g>
      </g>
      <g id="Grupo_1678" data-name="Grupo 1678" transform="translate(0.101)">
        <path id="Trazado_3115" data-name="Trazado 3115" d="M1519,807.88c-4.963,16.109-15.658,27.394-28.949,35.116-10.755,6.256-23.241,10.161-35.8,12.4-18.055,3.221-35.66,6.024-54.011,4.031-19.472-2.13-38.459-6.535-57.294-11.812q-1.752-.493-3.5-1.029c-.345-.11-33.978-10.864-41.17-43.612-.2-.9-4.654-22.288,16.171-42.3l6.336-6.88c1.151-1.244.81-8.094,1.075-9.823a121.967,121.967,0,0,1,4.561-18.818c8.5-25.931,36.028-45.682,62.24-51.516a25.7,25.7,0,0,1,5.447-.873c1.652-.046,2.057-.732,2.179-.949.531-.905.405-2.571-.279-4.2a6.693,6.693,0,0,0-.421-.9,16.749,16.749,0,0,1-1.947-3.659c.172.716,3.114,1.184,3.752,1.48a8.579,8.579,0,0,1,3.128,2.428,13.5,13.5,0,0,1,1.006,1.6c.354.62.766,1.572,1.578,1.665.77.09,1.562-.663,2.113-1.1a7.026,7.026,0,0,0,2.995-4.76c.242-2.014-.295-4.028-.172-6.034.73.7,1.483,1.374,2.226,2.06.809.76,1.632,1.493,2.458,2.209.843-.716,1.653-1.45,2.475-2.209.74-.683,1.46-1.433,2.246-2.053-.269.212.02,2.471.033,2.873a22.968,22.968,0,0,0,.279,3.058,8.861,8.861,0,0,0,2.339,5.059c2.02,1.94,2.916-.474,4.08-1.867.567-.68,1.3-1.221,1.933-1.842,1.526-1.493,3.845-1.944,5.759-2.723-.2,1.34-1.383,2.63-2.007,3.815-.156.3-.295.607-.421.9-.666,1.632-.793,3.3-.278,4.2.139.216.53.9,2.179.949,17.011.482,35.049,13.415,47.987,23.207,15.472,11.7,19.953,28.9,23.546,47.021,1.652,8.327,4.953,11.83,9.235,18.862a72.175,72.175,0,0,1,6.627,13.511A51.381,51.381,0,0,1,1519,807.88Z" transform="translate(-1297.739 -658.331)" fill="#f8f8f8"/>
      </g>
      <g id="Grupo_1679" data-name="Grupo 1679" transform="translate(101.117 127.238)">
        <path id="Trazado_3116" data-name="Trazado 3116" d="M1454.074,825.754a4.084,4.084,0,0,0-3.085-2.577h-18.828c-1.443.272-4.5,1.34-3.258,5.5a6.42,6.42,0,0,0,1.771,2.313,15.663,15.663,0,0,0,21.485,0,6.315,6.315,0,0,0,1.751-2.312A5.066,5.066,0,0,0,1454.074,825.754Z" transform="translate(-1428.612 -823.177)" fill-rule="evenodd"/>
      </g>
      <g id="Grupo_1680" data-name="Grupo 1680" transform="translate(126.559 67.108)">
        <path id="Trazado_3117" data-name="Trazado 3117" d="M1472.342,795.022a63.381,63.381,0,0,1,24.3-5.935,121.443,121.443,0,0,1,30.77,2.057,27.142,27.142,0,0,0,3.5-18.7c-2.664-15.584-21.443-29.172-37.21-26.922-.57.083-1.144.173-1.714.272-13.647,2.355-28.77,10.233-30.286,25.277a27.123,27.123,0,0,0,.275,7.228C1463.091,784.954,1466.988,790.623,1472.342,795.022Z" transform="translate(-1461.574 -745.274)"/>
      </g>
      <g id="Grupo_1681" data-name="Grupo 1681" transform="translate(33.91 67.108)">
        <path id="Trazado_3118" data-name="Trazado 3118" d="M1398.028,796.9c6.612-4.614,11.568-10.953,12.848-18.6a27.1,27.1,0,0,0,.276-7.228c-1.513-15.044-16.639-22.922-30.286-25.277-.57-.1-1.144-.189-1.711-.272-15.77-2.249-34.545,11.339-37.216,26.922a27.123,27.123,0,0,0,4.17,19.7A83.377,83.377,0,0,1,1398.028,796.9Z" transform="translate(-1341.54 -745.274)"/>
      </g>
      <g id="Grupo_1683" data-name="Grupo 1683" transform="translate(89.434 87.617)">
        <g id="Grupo_1682" data-name="Grupo 1682">
          <path id="Trazado_3119" data-name="Trazado 3119" d="M1462.649,792.389h-8.821c0-7.265-7.073-13.176-15.767-13.176s-15.77,5.911-15.77,13.176h-8.817c0-11.328,11.03-20.544,24.587-20.544S1462.649,781.061,1462.649,792.389Z" transform="translate(-1413.475 -771.845)"/>
        </g>
      </g>
      <g id="Grupo_1684" data-name="Grupo 1684" transform="translate(46.439 123.118)">
        <path id="Trazado_3120" data-name="Trazado 3120" d="M1379.5,821.183c0,1.844-4.863,3.341-10.864,3.341s-10.86-1.5-10.86-3.341,4.863-3.344,10.86-3.344S1379.5,819.336,1379.5,821.183Z" transform="translate(-1357.773 -817.839)" fill="#ff3f3f"/>
      </g>
      <g id="Grupo_1685" data-name="Grupo 1685" transform="translate(160.902 123.118)">
        <path id="Trazado_3121" data-name="Trazado 3121" d="M1527.793,821.183c0,1.844-4.864,3.341-10.864,3.341s-10.861-1.5-10.861-3.341,4.864-3.344,10.861-3.344S1527.793,819.336,1527.793,821.183Z" transform="translate(-1506.068 -817.839)" fill="#ff3f3f"/>
      </g>
      <g id="Grupo_1687" data-name="Grupo 1687" transform="translate(109.094 128.45)">
        <g id="Grupo_1686" data-name="Grupo 1686">
          <path id="Trazado_3122" data-name="Trazado 3122" d="M1448.3,826.307c.635-1.551-3.637-1.511-4.614-1.538-1.158-.026-3.913-.194-4.617,1.038-.627,1.093,1.366,1.884,2.15,2.09,1.7.444,5.131.428,6.485-.823A2.3,2.3,0,0,0,1448.3,826.307Z" transform="translate(-1438.947 -824.747)" fill="#232323" fill-rule="evenodd"/>
        </g>
      </g>
      <g id="Grupo_1694" data-name="Grupo 1694" transform="translate(143.381 79.926)">
        <g id="Grupo_1689" data-name="Grupo 1689">
          <g id="Grupo_1688" data-name="Grupo 1688">
            <path id="Trazado_3123" data-name="Trazado 3123" d="M1483.619,781.924a17.125,17.125,0,1,1,19.791,13.965A17.128,17.128,0,0,1,1483.619,781.924Z" transform="translate(-1483.367 -761.881)" fill="#fff" fill-rule="evenodd"/>
          </g>
        </g>
        <g id="Grupo_1691" data-name="Grupo 1691" transform="translate(3.402 4.02)">
          <g id="Grupo_1690" data-name="Grupo 1690">
            <path id="Trazado_3124" data-name="Trazado 3124" d="M1487.972,782.735a13.368,13.368,0,1,1,15.452,10.9A13.371,13.371,0,0,1,1487.972,782.735Z" transform="translate(-1487.775 -767.089)" fill-rule="evenodd"/>
          </g>
        </g>
        <g id="Grupo_1693" data-name="Grupo 1693" transform="translate(6.419 22.404)">
          <g id="Grupo_1692" data-name="Grupo 1692">
            <path id="Trazado_3125" data-name="Trazado 3125" d="M1491.733,794.84a3.36,3.36,0,1,1,3.884,2.739A3.356,3.356,0,0,1,1491.733,794.84Z" transform="translate(-1491.683 -790.907)" fill="#fff" fill-rule="evenodd"/>
          </g>
        </g>
      </g>
      <g id="Grupo_1701" data-name="Grupo 1701" transform="translate(52.184 79.926)">
        <g id="Grupo_1696" data-name="Grupo 1696">
          <g id="Grupo_1695" data-name="Grupo 1695">
            <path id="Trazado_3126" data-name="Trazado 3126" d="M1399.222,781.924a17.126,17.126,0,1,0-19.792,13.965A17.127,17.127,0,0,0,1399.222,781.924Z" transform="translate(-1365.215 -761.881)" fill="#fff" fill-rule="evenodd"/>
          </g>
        </g>
        <g id="Grupo_1698" data-name="Grupo 1698" transform="translate(4.115 4.02)">
          <g id="Grupo_1697" data-name="Grupo 1697">
            <path id="Trazado_3127" data-name="Trazado 3127" d="M1397.09,782.735a13.367,13.367,0,1,0-15.446,10.9A13.367,13.367,0,0,0,1397.09,782.735Z" transform="translate(-1370.547 -767.089)" fill-rule="evenodd"/>
          </g>
        </g>
        <g id="Grupo_1700" data-name="Grupo 1700" transform="translate(21.469 21.749)">
          <g id="Grupo_1699" data-name="Grupo 1699">
            <path id="Trazado_3128" data-name="Trazado 3128" d="M1399.7,793.993a3.36,3.36,0,1,0-3.884,2.739A3.36,3.36,0,0,0,1399.7,793.993Z" transform="translate(-1393.03 -790.058)" fill="#fff" fill-rule="evenodd"/>
          </g>
        </g>
      </g>
      <g id="Grupo_1702" data-name="Grupo 1702" transform="translate(0 99.251)">
        <path id="Trazado_3129" data-name="Trazado 3129" d="M1518.594,804.88a72.06,72.06,0,0,0-6.628-13.509c-1-1.643-1.94-3.086-2.824-4.453-.095.312-.188.624-.287.935a64.557,64.557,0,0,1,4.3,23.1c0,36.108-30.13,66.238-66.238,66.238a64.47,64.47,0,0,1-10.08-.823l-.03.011c-1.764.681-3.556,1.313-5.385,1.87-9.6,2.929-20.108,3.5-30.165,3.508a64.63,64.63,0,0,1-24.222-4.722c-1.428.1-2.866.156-4.317.156-36.108,0-66.238-30.13-66.238-66.238a64.465,64.465,0,0,1,1.468-13.648c-13.464,17.669-9.992,34.394-9.813,35.19,7.19,32.748,40.825,43.5,41.168,43.614q1.752.536,3.5,1.026c18.836,5.278,37.823,9.684,57.3,11.815,18.351,1.991,35.955-.81,54.009-4.033,12.56-2.24,25.045-6.146,35.8-12.4,13.292-7.721,23.987-19.006,28.949-35.116A51.386,51.386,0,0,0,1518.594,804.88Z" transform="translate(-1297.607 -786.918)" fill="#e5e5e5"/>
      </g>
    </g>
    <path id="Trazado_3130" data-name="Trazado 3130" d="M1395.667,841.545c-6.762-.375-14.09.041-20.5,2.586-7.926,3.151-11.51,9.681-17.238,15.342a77.124,77.124,0,0,1-6.093,5.3,48.909,48.909,0,0,1-7.064,5.187,23.89,23.89,0,0,1-14.255,2.522q-1.261-.153-2.526-.323s-8.395-.52-11.2-.977,2.246,7.987,2.246,7.987,5.482,10.152,7.009,12.749c.086.147.168.2.248.2a49.839,49.839,0,0,0,4.576,6.14c6.126,6.991,14.665,12.147,24.284,11.925a29.927,29.927,0,0,0,8.49-1.483c11.825-3.825,19.156-11.524,28.306-19.239,6.235-5.261,13.331-9.693,18.639-15.923C1422.285,859.815,1414.545,842.593,1395.667,841.545Z" transform="translate(-1297.849 -652.763)" fill="#010101"/>
    <path id="Trazado_3131" data-name="Trazado 3131" d="M1536.887,873.82v.008l-.023.093a32.894,32.894,0,0,1-2.748,6.437s-5.133,10.328-6.569,12.975c-.085.154-.162.208-.247.208a48.873,48.873,0,0,1-4.361,6.291,39.9,39.9,0,0,1-6.237,6.159,29.692,29.692,0,0,1-15.237,6.445,22.228,22.228,0,0,1-2.393.147,30.055,30.055,0,0,1-8.537-1.2,45.677,45.677,0,0,1-9.023-3.666c-1.034-.54-2.03-1.127-3.01-1.729-.4-.247-.8-.5-1.2-.764-2.184-1.413-4.276-2.956-6.345-4.577-.062-.046-.116-.093-.178-.139-1.837-1.436-3.659-2.925-5.519-4.431-1.2-.988-2.424-1.968-3.674-2.956-.378-.293-.756-.587-1.135-.872-6.113-4.67-12.836-8.722-18.031-14.411a25,25,0,0,1-3.4-4.662c-4.253-7.564-3.126-15.677,2.177-21.2,3.4-3.551,8.529-6.028,15.051-6.615,6.746-.6,14.079-.44,20.57,1.891,8.027,2.879,11.833,9.278,17.745,14.743a76.541,76.541,0,0,0,6.275,5.087,49.1,49.1,0,0,0,7.232,4.948,23.666,23.666,0,0,0,13.639,2.123h.008c.232-.023.455-.054.687-.093.834-.124,1.675-.262,2.516-.409,0,0,8.367-.8,11.161-1.351C1536.941,872.13,1537.088,872.809,1536.887,873.82Z" transform="translate(-1325.336 -653.594)" fill="#010101"/>
  </g>
</svg>
