<svg xmlns="http://www.w3.org/2000/svg" width="52.339" height="42.748" viewBox="0 0 52.339 42.748"><g transform="translate(0)"><path d="M1947.666,1271.425a7.341,7.341,0,0,1-3.228-.675,5.375,5.375,0,0,1-2.184-1.847,4.692,4.692,0,0,1-.787-2.681,3.932,3.932,0,0,1,.9-2.714,5.248,5.248,0,0,1,2.891-1.446,25.861,25.861,0,0,1,5.3-.433h1.22v-.45a2,2,0,0,0-.594-1.637,3.3,3.3,0,0,0-2.039-.481,9.627,9.627,0,0,0-1.751.176,12.746,12.746,0,0,0-2.136.626,2.014,2.014,0,0,1-1.766-.032,1.918,1.918,0,0,1-.915-1.2,2.243,2.243,0,0,1,.16-1.573,2.364,2.364,0,0,1,1.429-1.172,16.463,16.463,0,0,1,2.843-.755,15.181,15.181,0,0,1,2.393-.209q3.95,0,5.861,1.7t1.911,5.363v6.487q0,2.891-2.633,2.891a2.4,2.4,0,0,1-2.666-2.569,3.813,3.813,0,0,1-1.542,1.927A4.812,4.812,0,0,1,1947.666,1271.425Zm1.285-3.726a2.818,2.818,0,0,0,2.007-.77,2.65,2.65,0,0,0,.819-2.024v-.579h-1.22a7.128,7.128,0,0,0-2.778.4,1.328,1.328,0,0,0-.884,1.268,1.581,1.581,0,0,0,.53,1.221A2.192,2.192,0,0,0,1948.95,1267.7Z" transform="translate(-1941.467 -1248.141)" fill="#fff"/><path d="M1986.255,1265.9a6.138,6.138,0,0,1-2.874-.674,4.6,4.6,0,0,1-1.943-1.8,2.45,2.45,0,0,1-2.762,2.409q-2.826,0-2.826-2.891v-17.439q0-2.891,2.826-2.891a2.925,2.925,0,0,1,2.135.739,2.878,2.878,0,0,1,.755,2.151v6.135a4.694,4.694,0,0,1,1.943-1.639,6.263,6.263,0,0,1,2.746-.61,6.376,6.376,0,0,1,6.038,3.838,10.319,10.319,0,0,1,.867,4.416,10.166,10.166,0,0,1-.884,4.4,6.688,6.688,0,0,1-2.44,2.858A6.506,6.506,0,0,1,1986.255,1265.9Zm-1.8-4.207a2.683,2.683,0,0,0,2.119-.963,6.138,6.138,0,0,0,0-6.182,2.7,2.7,0,0,0-2.119-.948,2.737,2.737,0,0,0-2.152.948,6.138,6.138,0,0,0,0,6.182A2.717,2.717,0,0,0,1984.457,1261.7Z" transform="translate(-1956.902 -1242.621)" fill="#fff"/><path d="M2019.44,1271.425a10.186,10.186,0,0,1-4.64-1,7.263,7.263,0,0,1-3.068-2.858,9.513,9.513,0,0,1,0-8.848,7.2,7.2,0,0,1,3.068-2.826,10.33,10.33,0,0,1,4.64-.979,11.632,11.632,0,0,1,1.96.176,9.08,9.08,0,0,1,2.119.659,1.955,1.955,0,0,1,1.06.883,2.287,2.287,0,0,1,.273,1.269,2.654,2.654,0,0,1-.385,1.22,1.674,1.674,0,0,1-.932.739,1.773,1.773,0,0,1-1.332-.16,5.148,5.148,0,0,0-2.152-.482,3.371,3.371,0,0,0-2.633,1.028,4.15,4.15,0,0,0-.932,2.89,4.265,4.265,0,0,0,.932,2.939,3.342,3.342,0,0,0,2.633,1.044,5.217,5.217,0,0,0,1.06-.113,4.816,4.816,0,0,0,1.092-.369,1.73,1.73,0,0,1,1.332-.144,1.782,1.782,0,0,1,.9.739,2.544,2.544,0,0,1,.385,1.2,2.274,2.274,0,0,1-.273,1.268,1.954,1.954,0,0,1-1.092.883,9.165,9.165,0,0,1-2.088.659A11.065,11.065,0,0,1,2019.44,1271.425Z" transform="translate(-1972.519 -1248.141)" fill="#fff"/></g><g transform="translate(15.725 24.458)"><path d="M1979.647,1305.291l-8.722-7.752a2.756,2.756,0,0,1,3.662-4.12l5.013,4.457,11.139-10.156a2.755,2.755,0,0,1,3.714,4.071Z" transform="translate(-1970 -1287)" fill="#fff"/></g></svg>