<svg xmlns="http://www.w3.org/2000/svg" width="64.24" height="43.101" viewBox="0 0 64.24 43.101"><g transform="translate(-1920.75 -971.788)"><path d="M2165.2,1012.256c-.125.439-.226.886-.377,1.315a6.421,6.421,0,0,1-5.945,4.333c-1.756.034-3.513.013-5.269.013-1.251,0-1.662-.4-1.663-1.646q-.005-5.583,0-11.166c0-3.157.046-6.316-.023-9.472A18.808,18.808,0,0,0,2138.426,978c-.14-.042-.282-.079-.418-.133a1.234,1.234,0,0,1-.8-1.505,1.159,1.159,0,0,1,1.442-.876,17.051,17.051,0,0,1,2.84.963c8.129,3.829,12.48,10.227,12.944,19.223.05.977.007,1.96.007,3.039.357,0,.66-.005.963,0a40.213,40.213,0,0,1,4.256.116,6.314,6.314,0,0,1,5.428,5.243,1.629,1.629,0,0,0,.111.282Zm-7.98,3.076v-14.072c-.686,0-1.333.043-1.971-.013-.605-.053-.725.191-.722.741.019,4.218.01,8.436.012,12.654,0,.222.025.444.041.69Zm2.63-.1c1.417-.483,2.538-1.381,2.633-2.742a65.4,65.4,0,0,0,.017-8.31,3.184,3.184,0,0,0-2.65-2.669Z" transform="translate(-180.207 -3.043)" fill="#fff"/><path d="M1920.75,1004.792a14.15,14.15,0,0,1,.683-2,6.305,6.305,0,0,1,5.659-3.63c1.437-.062,2.879-.011,4.4-.011,0-.439.01-.83,0-1.22a22.048,22.048,0,0,1,1.659-9.675,21.3,21.3,0,0,1,13.514-12.187,1.291,1.291,0,0,1,1.647.5,1.2,1.2,0,0,1-.185,1.5,2.53,2.53,0,0,1-.874.456A18.885,18.885,0,0,0,1934,996.838q.033,9.907,0,19.815a1.89,1.89,0,0,1-.247,1.124,1.662,1.662,0,0,1-1.1.555c-1.859.054-3.72.05-5.58.013a6.461,6.461,0,0,1-6.2-5.233c-.028-.141-.081-.277-.123-.415Zm7.833,10.961h2.83v-.791q0-4.385,0-8.77c0-1.315.01-2.631-.012-3.946,0-.181-.159-.511-.256-.516-.846-.041-1.694-.024-2.561-.024Zm-2.632-.2v-13.612a3.792,3.792,0,0,0-2.67,3.475q-.066,3.353,0,6.708A3.7,3.7,0,0,0,1925.951,1015.55Z" transform="translate(0 -3.483)" fill="#fff"/><path d="M2107.087,973.008a1.239,1.239,0,0,1-1.216,1.251,1.252,1.252,0,0,1-1.28-1.257,1.238,1.238,0,0,1,1.255-1.214A1.224,1.224,0,0,1,2107.087,973.008Z" transform="translate(-153.086 0)" fill="#fff"/></g></svg>