<svg xmlns="http://www.w3.org/2000/svg" width="62.8" height="42.748" viewBox="0 0 62.8 42.748"><g transform="translate(-1917.346 -1429.726)"><path d="M1945.244,1430.58c5.723-1.165,11.358-1.313,16.9.662a17.281,17.281,0,0,1,7.043,4.624,1.226,1.226,0,0,1,.327.741q.036,16.1.037,32.2a2.062,2.062,0,0,1-.028.2c-7.6-4.435-15.848-4.547-24.278-3.694Z" transform="translate(-22.141)" fill="#fff"/><path d="M2100.177,1430.629v34.692c-.811-.07-1.593-.135-2.374-.2-5.907-.522-11.742-.266-17.377,1.779-1.529.555-2.982,1.322-4.5,2.006-.008-.116-.033-.3-.033-.485q0-15.83.015-31.66a1.563,1.563,0,0,1,.4-.972,19.184,19.184,0,0,1,10.859-5.577,32.576,32.576,0,0,1,12.675.331C2099.948,1430.56,2100.05,1430.594,2100.177,1430.629Z" transform="translate(-125.826 -0.005)" fill="#fff"/><path d="M1917.346,1488.084V1449.4h3.134v.84q0,15.7,0,31.4c0,.244-.009.488.006.732a1.36,1.36,0,0,0,1.684,1.381c2.582-.222,5.163-.488,7.751-.593a32.018,32.018,0,0,1,10.5,1.35,2.41,2.41,0,0,1,.529.217A49.241,49.241,0,0,0,1917.346,1488.084Z" transform="translate(0 -15.613)" fill="#fff"/><path d="M2127.534,1449.318h3.084v38.7a48.749,48.749,0,0,0-23.64-3.321l-.032-.213c1.824-.371,3.635-.842,5.476-1.092a47.34,47.34,0,0,1,12.919.221,5.705,5.705,0,0,0,.795.062,1.3,1.3,0,0,0,1.385-1.234,6.177,6.177,0,0,0,.013-.731q0-15.761,0-31.521Z" transform="translate(-150.472 -15.549)" fill="#fff"/></g></svg>