<svg xmlns="http://www.w3.org/2000/svg" width="42.743" height="42.748" viewBox="0 0 42.743 42.748"><g transform="translate(-2005.105 -1352.039)"><path d="M2009.609,1352.039a3.494,3.494,0,0,1,.677.521,1.246,1.246,0,0,1-.215,1.723,8.467,8.467,0,0,0-2.309,4.488,8.58,8.58,0,0,0,2.272,7.648,1.393,1.393,0,0,1,.461,1.349,1.247,1.247,0,0,1-2.146.515,10.7,10.7,0,0,1-2.972-5.448,11.052,11.052,0,0,1,2.83-10.214,5.706,5.706,0,0,1,.735-.583Z" fill="#fff"/><path d="M2041.962,1361.307c-.194.879-.331,1.774-.593,2.633a10.512,10.512,0,0,1-2.617,4.307,1.254,1.254,0,1,1-1.812-1.722,8.734,8.734,0,0,0-.006-12.3c-.71-.765-.512-1.595.519-2.185h.667a4.824,4.824,0,0,1,.622.462,10.4,10.4,0,0,1,2.635,4.339c.258.859.393,1.753.584,2.63Z" transform="translate(5.886)" fill="#fff"/><path d="M2031.321,1368.507c0,1.655.006,3.312,0,4.967a7.091,7.091,0,0,1-14.177.309q-.071-5.279,0-10.559a7.085,7.085,0,0,1,14-1.254,8.45,8.45,0,0,1,.169,1.613C2031.334,1365.224,2031.321,1366.865,2031.321,1368.507Z" transform="translate(2.249 0.816)" fill="#fff"/><path d="M2035.581,1368.046h-.81v-2.5c.746,0,1.481-.031,2.212.01a1.162,1.162,0,0,1,1.088,1.133,65.242,65.242,0,0,1-.177,7.04,12.751,12.751,0,0,1-9.821,10.675,12.925,12.925,0,0,1-15.748-10.931,28.226,28.226,0,0,1-.118-3.332c-.017-1.071-.006-2.142,0-3.213a1.27,1.27,0,0,1,1.4-1.389c.625,0,1.249,0,1.9,0v2.486h-.744a.648.648,0,0,0-.056.173c.02,1.585-.055,3.179.085,4.753a10.41,10.41,0,0,0,20.554.933,15.873,15.873,0,0,0,.221-2.694C2035.609,1370.164,2035.581,1369.135,2035.581,1368.046Z" transform="translate(1.329 2.529)" fill="#fff"/><path d="M2025.238,1383.81v2.517c1.055,0,2.066,0,3.078,0a1.252,1.252,0,1,1-.011,2.5c-1.892.007-3.783,0-5.674,0-.974,0-1.946,0-2.92,0a1.254,1.254,0,1,1,0-2.5c.988,0,1.975,0,3.007,0v-2.517Z" transform="translate(2.484 5.954)" fill="#fff"/><path d="M2009.317,1359.8a6.261,6.261,0,0,1,1.71-4.277,1.258,1.258,0,1,1,1.855,1.685,3.736,3.736,0,0,0-.006,5.207,1.258,1.258,0,1,1-1.843,1.7A6.257,6.257,0,0,1,2009.317,1359.8Z" transform="translate(0.789 0.56)" fill="#fff"/><path d="M2037.511,1359.833a6.247,6.247,0,0,1-1.73,4.295,1.255,1.255,0,1,1-1.84-1.694,3.741,3.741,0,0,0,.02-5.208,1.262,1.262,0,1,1,1.857-1.686A6.284,6.284,0,0,1,2037.511,1359.833Z" transform="translate(5.329 0.56)" fill="#fff"/><path d="M2016.042,1359.239a1.251,1.251,0,1,1-2.5.014,1.251,1.251,0,0,1,2.5-.014Z" transform="translate(1.581 1.119)" fill="#fff"/><path d="M2031.793,1358.011a1.251,1.251,0,0,1,1.264,1.222,1.251,1.251,0,1,1-2.5.026A1.252,1.252,0,0,1,2031.793,1358.011Z" transform="translate(4.769 1.119)" fill="#fff"/></g></svg>