<svg id="Capa_1" data-name="Capa 1" xmlns="http://www.w3.org/2000/svg" xmlns:xlink="http://www.w3.org/1999/xlink" viewBox="0 0 189 114.69"><defs><style>.cls-1{fill:none;}.cls-2{clip-path:url(#clip-path);}.cls-3{clip-path:url(#clip-path-2);}.cls-13,.cls-4{fill:#2e517f;}.cls-12,.cls-5{fill:#33c5ff;}.cls-6{fill:#f9f9f9;}.cls-7{fill:#e5e5e5;}.cls-10,.cls-12,.cls-13,.cls-8{fill-rule:evenodd;}.cls-9{fill:#f24141;}.cls-10{fill:#282828;}.cls-11{fill:#fff;}</style><clipPath id="clip-path"><ellipse class="cls-1" cx="94.5" cy="57.34" rx="94.5" ry="57.34"/></clipPath><clipPath id="clip-path-2"><rect class="cls-1" x="3.76" width="184.59" height="116.35" rx="58.17"/></clipPath></defs><title>Mesa de trabajo 15</title><g class="cls-2"><g class="cls-3"><path class="cls-4" d="M161.07,64.63a.84.84,0,0,1-.06-.24.92.92,0,0,1,.8-1l4.81-.62a.93.93,0,1,1,.23,1.84l-4.8.62A.93.93,0,0,1,161.07,64.63Z"/><path class="cls-4" d="M167.68,64.59a1.31,1.31,0,0,1-.77.38l-4.81.62a1.33,1.33,0,0,1-1.4-.8,1.06,1.06,0,0,1-.09-.35,1.32,1.32,0,0,1,.26-1,1.34,1.34,0,0,1,.89-.51l4.8-.62a1.34,1.34,0,0,1,1,.26,1.38,1.38,0,0,1,.51.89,1.33,1.33,0,0,1-.27,1A.69.69,0,0,1,167.68,64.59Zm-6.12-.69-.05.05a.54.54,0,0,0-.1.39.5.5,0,0,0,0,.13h0a.52.52,0,0,0,.55.31l4.8-.62a.52.52,0,0,0,.35-.2.55.55,0,0,0-.09-.74.55.55,0,0,0-.39-.1l-4.81.62A.57.57,0,0,0,161.56,63.9Z"/><path class="cls-5" d="M157,54.74a.94.94,0,0,1,.29-1.1l3.85-2.94a.93.93,0,0,1,1.13,1.48l-3.85,2.94a.93.93,0,0,1-1.3-.18A.82.82,0,0,1,157,54.74Z"/><path class="cls-5" d="M162.66,52.37l-.14.13-3.85,2.94a1.34,1.34,0,0,1-1.87-.25,1.11,1.11,0,0,1-.17-.3h0a1.31,1.31,0,0,1,.42-1.57l3.85-2.94a1.32,1.32,0,0,1,1.86.25A1.34,1.34,0,0,1,162.66,52.37ZM157.48,54a.54.54,0,0,0-.11.57h0a.75.75,0,0,0,.07.12.53.53,0,0,0,.74.09L162,51.85a.52.52,0,0,0-.63-.83L157.54,54Z"/><path class="cls-4" d="M148.52,48.2a.92.92,0,0,1,0-.71L150.39,43a.93.93,0,1,1,1.71.71l-1.86,4.47a.93.93,0,0,1-1.22.5A.94.94,0,0,1,148.52,48.2Z"/><path class="cls-4" d="M150.33,48.78a1.23,1.23,0,0,1-.44.3,1.38,1.38,0,0,1-1,0,1.34,1.34,0,0,1-.72-.72,1.32,1.32,0,0,1,0-1L150,42.86a1.33,1.33,0,0,1,2.47,0,1.38,1.38,0,0,1,0,1l-1.87,4.47A1.19,1.19,0,0,1,150.33,48.78Zm.54-5.77a.46.46,0,0,0-.11.16l-1.86,4.47a.49.49,0,0,0,0,.41h0a.48.48,0,0,0,.28.28.55.55,0,0,0,.4,0,.53.53,0,0,0,.29-.28l1.86-4.47a.58.58,0,0,0,0-.41.48.48,0,0,0-.28-.28A.54.54,0,0,0,150.87,43Z"/><path class="cls-5" d="M137.92,46.79a1.09,1.09,0,0,1-.07-.24l-.62-4.81a.93.93,0,0,1,.8-1,.92.92,0,0,1,1,.8l.63,4.81a.93.93,0,0,1-1.78.48Z"/><path class="cls-5" d="M139.72,47.36a1.25,1.25,0,0,1-.77.39,1.34,1.34,0,0,1-1.41-.81h0a1.89,1.89,0,0,1-.09-.34l-.62-4.81A1.33,1.33,0,0,1,138,40.3a1.3,1.3,0,0,1,1,.27,1.35,1.35,0,0,1,.51.88l.62,4.81a1.33,1.33,0,0,1-.27,1A.63.63,0,0,1,139.72,47.36Zm-1.94-6.11a.54.54,0,0,0-.15.44l.62,4.8a.57.57,0,0,0,0,.14h0a.52.52,0,0,0,.55.32.55.55,0,0,0,.35-.2.5.5,0,0,0,.1-.39l-.62-4.81a.47.47,0,0,0-.19-.34.51.51,0,0,0-.39-.11A.57.57,0,0,0,137.78,41.25Z"/><path class="cls-5" d="M130.76,90.84a.94.94,0,0,1,0-.72l1.86-4.47a.93.93,0,0,1,1.72.71l-1.87,4.48a.93.93,0,0,1-1.21.5A.91.91,0,0,1,130.76,90.84Z"/><path class="cls-5" d="M132.57,91.42a1.51,1.51,0,0,1-.45.29,1.29,1.29,0,0,1-1,0,1.32,1.32,0,0,1-.71-.72,1.34,1.34,0,0,1,0-1l1.87-4.47a1.31,1.31,0,0,1,1.74-.72,1.27,1.27,0,0,1,.72.72,1.29,1.29,0,0,1,0,1L132.85,91A1.6,1.6,0,0,1,132.57,91.42Zm.54-5.78a.52.52,0,0,0-.12.17l-1.86,4.47a.55.55,0,0,0,0,.4h0a.55.55,0,0,0,.28.28.49.49,0,0,0,.41,0,.51.51,0,0,0,.28-.28L134,86.21a.47.47,0,0,0,0-.4.53.53,0,0,0-.28-.29.55.55,0,0,0-.4,0A.43.43,0,0,0,133.11,85.64Z"/><path class="cls-5" d="M143.85,92.59a.84.84,0,0,1-.06-.24l-.63-4.8a.93.93,0,0,1,1.85-.24l.62,4.8a.93.93,0,0,1-1.78.48Z"/><path class="cls-5" d="M145.66,93.17a1.28,1.28,0,0,1-.78.38,1.32,1.32,0,0,1-1.4-.8,1.4,1.4,0,0,1-.1-.35l-.62-4.8a1.33,1.33,0,0,1,2.14-1.23,1.38,1.38,0,0,1,.51.89l.62,4.8a1.32,1.32,0,0,1-.27,1Zm-1.95-6.11a.52.52,0,0,0-.15.43l.63,4.81a.28.28,0,0,0,0,.13h0a.53.53,0,0,0,.55.31.52.52,0,0,0,.35-.2.54.54,0,0,0,.11-.39l-.63-4.8a.49.49,0,0,0-.19-.35.54.54,0,0,0-.39-.1A.51.51,0,0,0,143.71,87.06Z"/><path class="cls-4" d="M153.12,83.71a.93.93,0,0,1,1.6-.92l2.94,3.85a.93.93,0,0,1-1.48,1.13l-2.94-3.85A1.13,1.13,0,0,1,153.12,83.71Z"/><path class="cls-4" d="M157.87,88.14l-.14.12a1.34,1.34,0,0,1-1,.27,1.33,1.33,0,0,1-.88-.52l-2.94-3.85a1.22,1.22,0,0,1-.17-.29,1.32,1.32,0,0,1,.42-1.58,1.35,1.35,0,0,1,1.87.25L158,86.39A1.34,1.34,0,0,1,157.87,88.14ZM153.6,83a.52.52,0,0,0-.11.56h0a.41.41,0,0,0,.07.11l2.94,3.85a.55.55,0,0,0,.35.2.5.5,0,0,0,.39-.1.54.54,0,0,0,.1-.74L154.4,83a.53.53,0,0,0-.74-.09Z"/><path class="cls-5" d="M159.65,75.24a.94.94,0,0,1,0-.72.93.93,0,0,1,1.22-.5l4.47,1.86a.94.94,0,0,1,.5,1.22.93.93,0,0,1-1.21.5l-4.48-1.86A1,1,0,0,1,159.65,75.24Z"/><path class="cls-5" d="M165.93,77.68a1.33,1.33,0,0,1-1.46.29L160,76.11a1.34,1.34,0,0,1-.72-.72h0a1.29,1.29,0,0,1,0-1,1.32,1.32,0,0,1,1.74-.72l4.48,1.86a1.37,1.37,0,0,1,.72.72,1.33,1.33,0,0,1,0,1A1.15,1.15,0,0,1,165.93,77.68Zm-5.9-2.6a.48.48,0,0,0,.28.28l4.47,1.87a.53.53,0,0,0,.69-.29.55.55,0,0,0,0-.4.53.53,0,0,0-.29-.28l-4.47-1.87a.52.52,0,0,0-.68.29.47.47,0,0,0,0,.4Z"/><path class="cls-5" d="M32.21,55.86a.7.7,0,0,0,.19-.16.92.92,0,0,0,0-1.31l-3.52-3.33a.93.93,0,0,0-1.27,1.35l3.52,3.33A.92.92,0,0,0,32.21,55.86Z"/><path class="cls-5" d="M26.87,51.78a1.32,1.32,0,0,1,.37-1,1.32,1.32,0,0,1,1.88,0l3.52,3.33a1.3,1.3,0,0,1,.42.93,1.33,1.33,0,0,1-.36.95,1.49,1.49,0,0,1-.28.23A1.34,1.34,0,0,1,30.81,56l-3.52-3.33a1.31,1.31,0,0,1-.4-.77A1,1,0,0,1,26.87,51.78Zm5.22,2.91-3.52-3.33a.55.55,0,0,0-.38-.15.58.58,0,0,0-.37.17.55.55,0,0,0-.14.37.5.5,0,0,0,.17.37l3.52,3.33a.53.53,0,0,0,.63.07h0l.11-.09a.59.59,0,0,0,.14-.38.13.13,0,0,0,0-.06A.48.48,0,0,0,32.09,54.69Z"/><path class="cls-4" d="M41.32,50.25a.93.93,0,0,0,.41-1.06l-1.38-4.64a.93.93,0,0,0-1.79.53L40,49.72a.92.92,0,0,0,1.15.63A.74.74,0,0,0,41.32,50.25Z"/><path class="cls-4" d="M39.07,43.54a1.33,1.33,0,0,1,1.66.9l1.39,4.64a1.33,1.33,0,0,1-.59,1.52h0a1.46,1.46,0,0,1-.31.14,1.34,1.34,0,0,1-1.66-.9L38.18,45.2a1.06,1.06,0,0,1,0-.19A1.33,1.33,0,0,1,39.07,43.54Zm2.27,5.77L40,44.67a.53.53,0,0,0-.65-.36A.54.54,0,0,0,39,45l1.39,4.64A.52.52,0,0,0,41,50l.12-.05h0a.54.54,0,0,0,.25-.53S41.35,49.33,41.34,49.31Z"/><path class="cls-5" d="M52,50a.92.92,0,0,0,.42-.57l1.12-4.72a.93.93,0,0,0-1.81-.43l-1.12,4.71a.93.93,0,0,0,.69,1.12A.89.89,0,0,0,52,50Z"/><path class="cls-5" d="M50.24,48.85l1.12-4.71a1.3,1.3,0,0,1,.6-.83,1.32,1.32,0,0,1,1-.16,1.34,1.34,0,0,1,1,1.61l-1.12,4.71a1.34,1.34,0,0,1-.6.83,1.36,1.36,0,0,1-1,.16,1.37,1.37,0,0,1-.83-.6,1.21,1.21,0,0,1-.18-.5A1.25,1.25,0,0,1,50.24,48.85Zm2.54-4.91a.51.51,0,0,0-.4.06.49.49,0,0,0-.23.33L51,49a.54.54,0,0,0,.07.39.51.51,0,0,0,.32.24.55.55,0,0,0,.4-.06h0a.52.52,0,0,0,.23-.33l1.13-4.71a.69.69,0,0,0,0-.2A.52.52,0,0,0,52.78,43.94Z"/><path class="cls-5" d="M61.43,55a.9.9,0,0,0,.19-.15L65,51.37a.93.93,0,1,0-1.35-1.28l-3.33,3.52a.93.93,0,0,0,0,1.31A.91.91,0,0,0,61.43,55Z"/><path class="cls-5" d="M59.62,54.29a1.31,1.31,0,0,1,.36-1l3.33-3.52a1.34,1.34,0,0,1,.93-.42,1.31,1.31,0,0,1,1,.37,1.33,1.33,0,0,1,.06,1.88l-3.33,3.52a1.23,1.23,0,0,1-.28.23h0A1.34,1.34,0,0,1,60,55.22a1.31,1.31,0,0,1-.4-.77A.92.92,0,0,1,59.62,54.29Zm5-3.94a.55.55,0,0,0-.38-.15.53.53,0,0,0-.36.17l-3.33,3.52a.51.51,0,0,0-.15.37.56.56,0,0,0,.17.37.53.53,0,0,0,.63.07h0l.11-.09,3.33-3.52a.52.52,0,0,0,.13-.44A.46.46,0,0,0,64.64,50.35Z"/><path class="cls-5" d="M41.32,94.88a.92.92,0,0,0,.42-.57l1.12-4.72a.93.93,0,1,0-1.81-.43l-1.12,4.71A.93.93,0,0,0,40.62,95,.89.89,0,0,0,41.32,94.88Z"/><path class="cls-5" d="M39.54,93.78l1.12-4.71a1.3,1.3,0,0,1,.6-.83,1.37,1.37,0,0,1,1-.16,1.32,1.32,0,0,1,.82.6,1.28,1.28,0,0,1,.16,1L42.13,94.4a1.34,1.34,0,0,1-.6.83,1.36,1.36,0,0,1-1,.16,1.37,1.37,0,0,1-.83-.6,1.21,1.21,0,0,1-.18-.5A1.25,1.25,0,0,1,39.54,93.78ZM42.4,89.1a.48.48,0,0,0-.32-.23.51.51,0,0,0-.4.06.49.49,0,0,0-.23.33L40.32,94a.52.52,0,0,0,.07.39.51.51,0,0,0,.32.24.55.55,0,0,0,.4-.06h0a.57.57,0,0,0,.24-.33l1.12-4.71a.67.67,0,0,0,0-.2A.5.5,0,0,0,42.4,89.1Z"/><path class="cls-4" d="M29.7,88.6a.9.9,0,0,0,.19-.15l3.33-3.52a.93.93,0,1,0-1.35-1.28l-3.33,3.52a.92.92,0,0,0,0,1.31A.91.91,0,0,0,29.7,88.6Z"/><path class="cls-4" d="M27.88,87.85a1.32,1.32,0,0,1,.37-1l3.32-3.52A1.37,1.37,0,0,1,32.5,83a1.27,1.27,0,0,1,1,.36,1.33,1.33,0,0,1,0,1.89l-3.32,3.51a1.49,1.49,0,0,1-.28.23,1.34,1.34,0,0,1-1.61-.17,1.31,1.31,0,0,1-.4-.77A.88.88,0,0,1,27.88,87.85Zm5-3.94a.51.51,0,0,0-.37-.15.58.58,0,0,0-.37.17l-3.33,3.52a.55.55,0,0,0-.14.37.5.5,0,0,0,.17.37.53.53,0,0,0,.63.07h0l.11-.09,3.33-3.52a.51.51,0,0,0,.13-.44A.47.47,0,0,0,32.9,83.91Z"/><path class="cls-5" d="M27.42,76a.93.93,0,0,0-.75-1.68L22,75.67a.94.94,0,0,0-.63,1.16.93.93,0,0,0,1.16.62l4.64-1.38Z"/><path class="cls-5" d="M21.91,75.28l4.65-1.38a1.33,1.33,0,0,1,1.07,2.42,1.69,1.69,0,0,1-.31.13l-4.64,1.39a1.34,1.34,0,0,1-1.66-.9,1.21,1.21,0,0,1-.05-.18A1.36,1.36,0,0,1,21.91,75.28ZM27.44,75a.53.53,0,0,0-.65-.36l-4.64,1.39a.52.52,0,0,0-.36.65.52.52,0,0,0,.65.35l4.65-1.38a.34.34,0,0,0,.12-.06h0a.52.52,0,0,0,.25-.52S27.45,75.05,27.44,75Z"/><path class="cls-4" d="M27.12,65.27a.92.92,0,0,0,.42-.57.93.93,0,0,0-.69-1.12l-4.71-1.13a.93.93,0,1,0-.43,1.81l4.71,1.12A.89.89,0,0,0,27.12,65.27Z"/><path class="cls-4" d="M20.63,63.05a1.3,1.3,0,0,1,.6-.83,1.35,1.35,0,0,1,1-.16L27,63.18a1.34,1.34,0,0,1,1,1.61,1.3,1.3,0,0,1-.6.83h0a1.35,1.35,0,0,1-1,.16l-4.72-1.13a1.31,1.31,0,0,1-1-1.1A1.21,1.21,0,0,1,20.63,63.05Zm6.28,1.88a.57.57,0,0,0,.24-.33.53.53,0,0,0-.39-.63l-4.71-1.12a.55.55,0,0,0-.4.06.54.54,0,0,0-.24.33.53.53,0,0,0,.39.63L26.51,65a.55.55,0,0,0,.4-.06Z"/><path d="M119.43,106.37c-2.21-2.7-5-7.39-7.52-9.51C108,93.57,99,95.12,93.11,95.69c-5.87-.57-14.92-2.12-18.79,1.17C71.83,99,69,103.67,66.8,106.37c-8,9.74-20.55,24.17-19.72,37.77.85,13.79,10.18,21.07,21,22.38,6.51.78,15.66,2,24.77,2a216.19,216.19,0,0,0,25.22-2c10.85-1.31,20.19-8.59,21-22.38C140,130.54,127.4,116.11,119.43,106.37Z"/><path d="M144.31,14.92C140.69,3.57,128.37,4,128.27,4c-9.13.21-14.4,8-14.62,8.37l-.38.58,25.89,21.88.5-.59C146.59,26.05,145.9,19.88,144.31,14.92Z"/><path d="M46,14.92C49.61,3.57,61.93,4,62,4c9.13.21,14.4,8,14.62,8.37L77,13,51.14,34.84l-.5-.59C43.71,26.05,44.4,19.88,46,14.92Z"/><path class="cls-6" d="M150.75,77.92c-2.58,8.39-8.16,14.27-15.08,18.3A57.39,57.39,0,0,1,117,102.68c-9.41,1.68-18.58,3.14-28.15,2.1A185.64,185.64,0,0,1,59,98.62l-1.82-.53C57,98,39.49,92.43,35.75,75.37c-.11-.47-2.43-11.62,8.42-22.05l3.3-3.58c.6-.65.43-4.22.56-5.12a63.63,63.63,0,0,1,2.38-9.8C54.84,21.31,69.18,11,82.84,8a13.67,13.67,0,0,1,2.84-.45c.86,0,1.07-.38,1.13-.49a2.72,2.72,0,0,0-.14-2.19,3.38,3.38,0,0,0-.22-.47,9.26,9.26,0,0,1-1-1.91c.09.37,1.63.62,2,.77A4.4,4.4,0,0,1,89,4.5a6.43,6.43,0,0,1,.52.83c.19.32.4.82.83.87s.81-.35,1.1-.58A3.66,3.66,0,0,0,93,3.14c.12-1.05-.16-2.09-.09-3.14L94.1,1.07c.42.4.85.78,1.28,1.15.44-.37.86-.75,1.29-1.15S97.43.33,97.84,0c-.14.11,0,1.29,0,1.5A12.05,12.05,0,0,0,98,3.09a4.56,4.56,0,0,0,1.22,2.64c1,1,1.52-.25,2.12-1a13,13,0,0,1,1-1,8.72,8.72,0,0,1,3-1.42,7.29,7.29,0,0,1-1,2,4,4,0,0,0-.22.47A2.77,2.77,0,0,0,103.94,7c.07.11.28.47,1.14.49,8.86.25,18.26,7,25,12.09,8.06,6.1,10.4,15.06,12.27,24.5.86,4.34,2.58,6.16,4.81,9.83a37.34,37.34,0,0,1,3.45,7A26.75,26.75,0,0,1,150.75,77.92Z"/><path class="cls-7" d="M150.56,61.07a37.38,37.38,0,0,0-3.46-7c-.52-.85-1-1.61-1.47-2.32,0,.17-.09.33-.15.49a33.6,33.6,0,0,1,2.25,12,34.84,34.84,0,0,1-34.52,34.52,33.81,33.81,0,0,1-5.25-.43h0c-.92.36-1.86.69-2.81,1-5,1.52-10.48,1.82-15.72,1.83A33.77,33.77,0,0,1,76.8,98.67c-.74,0-1.49.08-2.25.08A34.84,34.84,0,0,1,40,64.23a33.45,33.45,0,0,1,.77-7.11c-7,9.21-5.21,17.92-5.12,18.34C39.44,92.52,57,98.13,57.14,98.18q.91.28,1.83.54a185.17,185.17,0,0,0,29.85,6.15c9.56,1,18.73-.42,28.14-2.1a57.31,57.31,0,0,0,18.65-6.46c6.93-4,12.5-9.9,15.09-18.3A26.75,26.75,0,0,0,150.56,61.07Z"/><path class="cls-8" d="M101.37,67.64a2.16,2.16,0,0,0-1.61-1.35H90a2,2,0,0,0-1.7,2.87,3.3,3.3,0,0,0,.93,1.2,8.1,8.1,0,0,0,3.55,2,8.63,8.63,0,0,0,1.68.25,8.11,8.11,0,0,0,6-2.22,3.25,3.25,0,0,0,.91-1.2A2.64,2.64,0,0,0,101.37,67.64Z"/><line class="cls-1" x1="95.34" y1="66.57" x2="94.48" y2="66.48"/><line class="cls-1" x1="94.48" y1="66.48" x2="93.61" y2="66.57"/><path d="M113.57,111.34c4.55,5.32,10.7,9,17.71,6.66s9.26-9.61,11.15-16.13c1.51-5.16,8.07-15.61,1.23-19.48-4.43-2.51-11,2.11-14.14,5-2.74,2.55-3.12,5.7-5.06,8.77a23.72,23.72,0,0,1-11.73,9.1"/><path d="M115.25,109.91c7,7.9,17.8,9.27,22.76-1.75,1.45-3.21,2.11-6.71,3.42-10a45.68,45.68,0,0,0,2.93-8.55c1.95-10.62-11.68-3.09-14.68,1-2.24,3.08-2.88,6.74-5.59,9.61a28.85,28.85,0,0,1-10.42,7c-2.63,1.07-4.53-2.92-1.88-4A27.11,27.11,0,0,0,120.18,98c2.65-2.45,3.47-5.74,5.21-8.75,2.2-3.81,5.88-6.45,9.76-8.39,7.89-4,15,1.52,13.45,10-.7,3.86-2.55,7.38-3.86,11-1.92,5.38-3.11,10.33-7,14.68-7.65,8.53-19.63,3.14-25.84-3.82-1.9-2.12,1.46-5,3.36-2.87Z"/><path d="M71.43,111.34c-4.55,5.32-10.7,9-17.71,6.66s-9.26-9.61-11.16-16.13c-1.5-5.16-8.07-15.61-1.22-19.48,4.43-2.51,11,2.11,14.14,5,2.74,2.55,3.12,5.7,5.06,8.77a23.72,23.72,0,0,0,11.73,9.1"/><path d="M69.75,109.91c-7,7.9-17.8,9.27-22.76-1.75-1.45-3.21-2.11-6.71-3.42-10a45.68,45.68,0,0,1-2.93-8.55c-2-10.62,11.68-3.09,14.68,1,2.23,3.08,2.88,6.74,5.59,9.61a28.85,28.85,0,0,0,10.42,7c2.63,1.07,4.53-2.92,1.88-4A27.11,27.11,0,0,1,64.82,98c-2.66-2.45-3.47-5.74-5.21-8.75-2.21-3.81-5.88-6.45-9.77-8.39-7.88-4-15,1.52-13.45,10,.71,3.86,2.56,7.38,3.87,11,1.92,5.38,3.11,10.33,7,14.68,7.65,8.53,19.63,3.14,25.84-3.82,1.9-2.12-1.46-5-3.36-2.87Z"/><path d="M107,60.89a33,33,0,0,1,12.66-3.1,63.59,63.59,0,0,1,16,1.07,14.05,14.05,0,0,0,1.82-9.74c-1.38-8.12-11.17-15.2-19.38-14l-.9.14c-7.11,1.23-15,5.34-15.78,13.17a14.17,14.17,0,0,0,.15,3.77A14.52,14.52,0,0,0,107,60.89Z"/><path d="M82.52,61.86c3.44-2.4,6-5.7,6.69-9.69a13.75,13.75,0,0,0,.14-3.77c-.78-7.83-8.66-11.94-15.78-13.17l-.89-.14c-8.21-1.17-18,5.91-19.39,14a14.08,14.08,0,0,0,2.18,10.26A43.47,43.47,0,0,1,82.52,61.86Z"/><path d="M107.64,56.35H103c0-3.78-3.68-6.86-8.21-6.86s-8.22,3.08-8.22,6.86H82c0-5.9,5.75-10.7,12.82-10.7S107.64,50.45,107.64,56.35Z"/><path class="cls-9" d="M70.93,65.89c0,1-2.53,1.74-5.66,1.74s-5.66-.78-5.66-1.74,2.54-1.74,5.66-1.74S70.93,64.93,70.93,65.89Z"/><path class="cls-9" d="M130.57,65.89c0,1-2.53,1.74-5.66,1.74s-5.66-.78-5.66-1.74,2.54-1.74,5.66-1.74S130.57,64.93,130.57,65.89Z"/><path class="cls-10" d="M97.13,67.74c.33-.81-1.89-.79-2.4-.8s-2-.1-2.41.54.71,1,1.12,1.09c.89.23,2.67.22,3.38-.43A1.35,1.35,0,0,0,97.13,67.74Z"/><path d="M101.77,75.48c-1.31,6.39-12.52,6-14-.11-.4-1.64-3.92-.71-3.51.94,2.31,9.48,19.24,8,21.09-1.09.35-1.74-3.25-1.32-3.57.26Z"/><path class="cls-11" d="M81.71,51c-.54-4.07-4.14-5.85-7.91-6.29-5.57-.64-9.67,1.39-14.17,4.49-1.44,1,.74,1.52,1.63.91,3.31-2.29,6.43-4.19,10.64-3.91,3.47.23,6.75,1.76,7.24,5.48.13,1,2.71.37,2.57-.68Z"/><path class="cls-11" d="M111.55,51.23c.55-4.15,4.53-5,8.1-5.08s6.76,2.25,9.58,4.2c.77.53,3.11-.57,2-1.33-4.72-3.25-8.91-5.1-14.67-4.11-3.71.64-7.08,2.64-7.61,6.6-.15,1.13,2.45.69,2.58-.28Z"/><polygon class="cls-12" points="161.98 23.7 162.5 27.73 166.49 28.49 162.81 30.23 163.33 34.26 160.54 31.3 156.86 33.04 158.82 29.47 156.03 26.51 160.03 27.27 161.98 23.7"/><path class="cls-5" d="M163.89,35.45l-3.44-3.66-4.54,2.14,2.41-4.4-3.44-3.65,4.93.93,2.41-4.4.64,5,4.93.94-4.54,2.14Zm-3.26-4.64,2.14,2.27-.4-3.09,2.82-1.33-3.06-.58L161.74,25l-1.5,2.73-3.06-.58,2.13,2.27-1.5,2.73Z"/><polygon class="cls-12" points="29.91 24.96 30.42 28.99 34.42 29.75 30.74 31.49 31.25 35.52 28.47 32.56 24.79 34.29 26.75 30.73 23.96 27.77 27.95 28.52 29.91 24.96"/><path class="cls-5" d="M31.81,36.7l-3.44-3.65-4.53,2.14,2.41-4.4-3.44-3.65,4.93.93,2.41-4.4.64,5,4.93.93-4.54,2.15Zm-3.25-4.63,2.14,2.27-.4-3.09,2.82-1.33-3.06-.58-.4-3.1L28.17,29l-3.06-.58,2.13,2.26-1.5,2.74Z"/><polygon class="cls-13" points="175.45 37.08 177.09 42.13 182.41 42.13 178.11 45.26 179.75 50.32 175.45 47.19 171.15 50.32 172.79 45.26 168.49 42.13 173.81 42.13 175.45 37.08"/><path class="cls-4" d="M170.38,51.38l1.94-6-5.07-3.68h6.26l1.94-6,1.94,6h6.27l-5.07,3.68,1.93,6-5.07-3.68Zm5.07-4.69L179,49.26l-1.35-4.16,3.54-2.56H176.8l-1.35-4.15-1.35,4.15h-4.36l3.53,2.56-1.35,4.16Z"/><polygon class="cls-13" points="11.96 37.63 13.61 42.68 18.92 42.68 14.62 45.81 16.27 50.86 11.96 47.74 7.66 50.86 9.3 45.81 5 42.68 10.32 42.68 11.96 37.63"/><path class="cls-4" d="M6.89,51.92l1.94-6L3.76,42.28H10l1.93-6,1.94,6h6.27L15.1,46l1.93,6L12,48.24ZM12,47.24,15.5,49.8l-1.35-4.15,3.53-2.56H13.31L12,38.93l-1.35,4.16H6.25l3.53,2.56L8.43,49.8Z"/></g></g></svg>