<svg xmlns="http://www.w3.org/2000/svg" width="40" height="40" viewBox="0 0 19.454 22.497"><g transform="translate(-439.619 -122.073)"><g transform="translate(451.913 124.694)"><g transform="translate(0 0)"><path d="M316.273,453.284h.047l1.839-.567,2.016.567h.047a.551.551,0,0,0,.389-.161l1.054-1.054a.551.551,0,0,0,.161-.389v-.047l-.522-2.069.522-1.786v-.047a.551.551,0,0,0-.161-.389l-1.054-1.054a.551.551,0,0,0-.389-.161h-.047l-1.825.383-2.03-.383h-.047a.551.551,0,0,0-.389.161l-1.054,1.054a.551.551,0,0,0-.161.389v.047l.444,1.778-.444,2.077v.047a.55.55,0,0,0,.161.389l1.054,1.054a.55.55,0,0,0,.389.161Zm0,0" transform="translate(-314.668 -446.124)" fill="#00213b"/><rect width="1.652" height="3.855" transform="translate(0 1.652)" fill="#003e6d"/><rect width="1.652" height="3.855" transform="translate(5.507 1.652)" fill="#285d86"/><rect width="3.855" height="1.652" transform="translate(1.652 0)" fill="#003e6d"/><rect width="3.855" height="1.652" transform="translate(1.652 5.507)" fill="#285d86"/><path d="M365.637,499.3h1.652a.551.551,0,0,0,.551-.551V497.1a.551.551,0,0,0-.551-.551h-1.652a.55.55,0,0,0-.551.551v1.652a.551.551,0,0,0,.551.551Zm0,0" transform="translate(-362.883 -494.343)" fill="#3882ba"/></g></g><g transform="translate(455.879 141.667) rotate(161)"><g transform="translate(0 0)"><path d="M6.918,0H6.859L4.568.706,2.058,0H2a.686.686,0,0,0-.485.2L.2,1.514A.686.686,0,0,0,0,2v.059L.65,4.634,0,6.859v.059A.686.686,0,0,0,.2,7.4L1.514,8.716a.686.686,0,0,0,.485.2h.059L4.33,8.44l2.528.477h.059a.686.686,0,0,0,.485-.2L8.716,7.4a.687.687,0,0,0,.2-.485V6.859L8.364,4.644l.553-2.587V2a.686.686,0,0,0-.2-.485L7.4.2A.685.685,0,0,0,6.918,0Zm0,0" transform="translate(0)" fill="#00213b"/><rect width="2.058" height="4.801" transform="translate(6.859 2.058)" fill="#003e6d"/><rect width="2.058" height="4.801" transform="translate(0 2.058)" fill="#285d86"/><rect width="4.801" height="2.058" transform="translate(2.058 6.859)" fill="#003e6d"/><rect width="4.801" height="2.058" transform="translate(2.058 0)" fill="#285d86"/><path d="M2.744,0H.686A.686.686,0,0,0,0,.686V2.744a.686.686,0,0,0,.686.686H2.744a.686.686,0,0,0,.686-.686V.686A.686.686,0,0,0,2.744,0Zm0,0" transform="translate(2.743 2.744)" fill="#3882ba"/></g></g><g transform="translate(439.619 122.072)"><path d="M1072.983,179.532l-.385,2.341-2.341.385,2.341.386.385,2.341.386-2.341,2.344-.386-2.344-.385Z" transform="translate(-1068.061 -177.331)" fill="#3882ba"/><path d="M1070.7,184.9l.7-4.231,4.233-.7-4.233-.7-.7-4.231-.7,4.231-4.227.7,4.227.7Zm.53-4.927-.455.075-.075.452-.074-.452-.455-.075.455-.075.074-.452.075.452Z" transform="translate(-1065.773 -175.046)" fill="#3882ba"/></g></g></svg>