<svg xmlns="http://www.w3.org/2000/svg" xmlns:xlink="http://www.w3.org/1999/xlink" width="184.176" height="186.296" viewBox="0 0 184.176 186.296">
  <defs>
    <clipPath id="clip-path">
      <rect id="Rectángulo_51" data-name="Rectángulo 51" width="186.296" height="184.176" transform="translate(0 186.296) rotate(-90)" fill="none"/>
    </clipPath>
  </defs>
  <g id="medida_pequeña" data-name="medida pequeña" transform="translate(184.176 186.296) rotate(180)">
    <g id="Grupo_727" data-name="Grupo 727" transform="translate(0)" clip-path="url(#clip-path)">
      <path id="Trazado_294" data-name="Trazado 294" d="M5.613,107.456s23.022-.856,23.022-6.421V6.434s0-4.281-21.81-6.42C-7.788-1.42,5.613,107.456,5.613,107.456Z" transform="translate(165.841 37.232)" fill="#0c0c0c"/>
      <g id="Grupo_726" data-name="Grupo 726" transform="translate(37.157 7.487)">
        <g id="Grupo_700" data-name="Grupo 700" transform="translate(6.031 10.081)">
          <g id="Grupo_697" data-name="Grupo 697">
            <g id="Grupo_696" data-name="Grupo 696">
              <path id="Trazado_295" data-name="Trazado 295" d="M16.442,1.583C-.649,7.05,0,25.6,0,25.76.33,39.5,12.128,47.452,12.617,47.78l.87.573,32.974-39-.893-.758C33.21-1.841,23.912-.8,16.442,1.583Z"/>
            </g>
          </g>
          <g id="Grupo_699" data-name="Grupo 699" transform="translate(0 102.942)">
            <g id="Grupo_698" data-name="Grupo 698">
              <path id="Trazado_296" data-name="Trazado 296" d="M16.442,46.768C-.649,41.3,0,22.754,0,22.592.33,8.85,12.128.9,12.617.575L13.487,0,46.46,39l-.893.757C33.21,50.194,23.912,49.158,16.442,46.768Z"/>
            </g>
          </g>
        </g>
        <g id="Grupo_701" data-name="Grupo 701">
          <path id="Trazado_297" data-name="Trazado 297" d="M117.383,1.968c12.644,3.9,21.5,12.29,27.563,22.722,4.911,8.442,7.975,18.242,9.735,28.1,2.528,14.172,4.729,27.99,3.164,42.394-1.671,15.284-5.13,30.187-9.272,44.971-.258.916-.526,1.83-.807,2.747-.086.271-8.528,26.67-34.231,32.315-.708.159-17.494,3.653-33.2-12.693l-5.4-4.973c-.977-.9-6.353-.635-7.71-.844a95.707,95.707,0,0,1-14.771-3.58c-20.353-6.668-35.855-28.279-40.435-48.853A20.13,20.13,0,0,1,11.329,100c-.036-1.3-.575-1.614-.745-1.71a4.084,4.084,0,0,0-3.3.219,5.256,5.256,0,0,0-.708.33,13.177,13.177,0,0,1-2.872,1.529c.562-.135.929-2.445,1.161-2.945a6.751,6.751,0,0,1,1.906-2.455,10.579,10.579,0,0,1,1.255-.789c.486-.279,1.234-.6,1.307-1.239.07-.6-.521-1.226-.861-1.659a5.518,5.518,0,0,0-3.737-2.351c-1.58-.19-3.16.232-4.736.135.55-.573,1.078-1.164,1.617-1.747.6-.635,1.172-1.281,1.734-1.929-.562-.662-1.138-1.3-1.734-1.943C1.08,82.863.492,82.3,0,81.681c.167.211,1.94-.016,2.255-.026a18.046,18.046,0,0,0,2.4-.219A6.958,6.958,0,0,0,8.631,79.6c1.523-1.585-.373-2.289-1.466-3.2-.533-.445-.958-1.023-1.445-1.518-1.172-1.2-1.526-3.018-2.138-4.52,1.052.156,2.065,1.086,2.995,1.575.231.122.476.231.708.331a4.2,4.2,0,0,0,3.3.219c.169-.11.708-.417.745-1.711.377-13.351,10.53-27.511,18.216-37.665C38.73,20.965,52.23,17.447,66.452,14.627c6.535-1.3,9.285-3.887,14.8-7.249a56.637,56.637,0,0,1,10.6-5.2A40.328,40.328,0,0,1,117.383,1.968Z" fill="#f8f8f8"/>
        </g>
        <g id="Grupo_702" data-name="Grupo 702" transform="translate(99.871 76.24)">
          <path id="Trazado_298" data-name="Trazado 298" d="M2.023.121A3.2,3.2,0,0,0,0,2.543V17.321c.213,1.133,1.052,3.533,4.314,2.557a5.039,5.039,0,0,0,1.815-1.39,12.274,12.274,0,0,0,2.966-5.356,12.223,12.223,0,0,0,.37-2.531A12.224,12.224,0,0,0,6.129,1.624,4.957,4.957,0,0,0,4.314.249,3.975,3.975,0,0,0,2.023.121Z" fill-rule="evenodd"/>
        </g>
        <g id="Grupo_703" data-name="Grupo 703" transform="translate(52.674 21.639)">
          <path id="Trazado_299" data-name="Trazado 299" d="M39.047,46.286a49.756,49.756,0,0,1-4.658-19.072A95.334,95.334,0,0,1,36,3.063,21.3,21.3,0,0,0,21.324.315C9.091,2.406-1.573,17.146.192,29.521c.065.448.135.9.213,1.346C2.254,41.579,8.438,53.449,20.246,54.639a21.286,21.286,0,0,0,5.673-.216C31.145,53.549,35.6,50.489,39.047,46.286Z"/>
        </g>
        <g id="Grupo_704" data-name="Grupo 704" transform="translate(52.674 94.36)">
          <path id="Trazado_300" data-name="Trazado 300" d="M40.521,10.4c-3.622-5.19-8.6-9.08-14.6-10.084A21.25,21.25,0,0,0,20.246.1C8.438,1.287,2.254,13.16.405,23.871c-.078.448-.148.9-.213,1.343-1.766,12.378,8.9,27.115,21.132,29.211a21.289,21.289,0,0,0,15.463-3.273A65.449,65.449,0,0,1,40.521,10.4Z"/>
        </g>
        <g id="Grupo_706" data-name="Grupo 706" transform="translate(68.771 66.92)">
          <g id="Grupo_705" data-name="Grupo 705">
            <path id="Trazado_301" data-name="Trazado 301" d="M16.125,0V6.923c-5.7,0-10.342,5.551-10.342,12.376s4.64,12.378,10.342,12.378V38.6C7.233,38.6,0,29.94,0,19.3S7.233,0,16.125,0Z"/>
          </g>
        </g>
        <g id="Grupo_707" data-name="Grupo 707" transform="translate(96.637 122.213)">
          <path id="Trazado_302" data-name="Trazado 302" d="M2.624,0C4.072,0,5.246,3.817,5.246,8.527s-1.174,8.524-2.622,8.524S0,13.235,0,8.527,1.175,0,2.624,0Z" fill="#ff3f3f"/>
        </g>
        <g id="Grupo_708" data-name="Grupo 708" transform="translate(96.637 32.369)">
          <path id="Trazado_303" data-name="Trazado 303" d="M2.624,0C4.072,0,5.246,3.818,5.246,8.527s-1.174,8.525-2.622,8.525S0,13.235,0,8.527,1.175,0,2.624,0Z" fill="#ff3f3f"/>
        </g>
        <g id="Grupo_710" data-name="Grupo 710" transform="translate(100.821 82.696)">
          <g id="Grupo_709" data-name="Grupo 709">
            <path id="Trazado_304" data-name="Trazado 304" d="M1.224.05C.007-.448.038,2.905.017,3.672,0,4.581-.135,6.743.833,7.3c.857.492,1.479-1.072,1.64-1.687.349-1.337.336-4.028-.645-5.09A1.8,1.8,0,0,0,1.224.05Z" fill="#232323" fill-rule="evenodd"/>
          </g>
        </g>
        <g id="Grupo_717" data-name="Grupo 717" transform="translate(62.735 36.286)">
          <g id="Grupo_712" data-name="Grupo 712">
            <g id="Grupo_711" data-name="Grupo 711">
              <path id="Trazado_305" data-name="Trazado 305" d="M15.731,26.69A13.441,13.441,0,1,1,26.693,11.156,13.444,13.444,0,0,1,15.731,26.69Z" fill="#fff" fill-rule="evenodd"/>
            </g>
          </g>
          <g id="Grupo_714" data-name="Grupo 714" transform="translate(3.155 3.229)">
            <g id="Grupo_713" data-name="Grupo 713" transform="translate(0 0)">
              <path id="Trazado_306" data-name="Trazado 306" d="M12.281,20.834A10.493,10.493,0,1,1,20.834,8.706,10.5,10.5,0,0,1,12.281,20.834Z" transform="translate(0 0)" fill-rule="evenodd"/>
            </g>
          </g>
          <g id="Grupo_716" data-name="Grupo 716" transform="translate(17.585 16.574)">
            <g id="Grupo_715" data-name="Grupo 715">
              <path id="Trazado_307" data-name="Trazado 307" d="M3.087,5.237a2.638,2.638,0,1,1,2.15-3.049A2.635,2.635,0,0,1,3.087,5.237Z" fill="#fff" fill-rule="evenodd"/>
            </g>
          </g>
        </g>
        <g id="Grupo_724" data-name="Grupo 724" transform="translate(62.735 107.865)">
          <g id="Grupo_719" data-name="Grupo 719">
            <g id="Grupo_718" data-name="Grupo 718">
              <path id="Trazado_308" data-name="Trazado 308" d="M15.731.2A13.443,13.443,0,1,0,26.693,15.733,13.443,13.443,0,0,0,15.731.2Z" fill="#fff" fill-rule="evenodd"/>
            </g>
          </g>
          <g id="Grupo_721" data-name="Grupo 721" transform="translate(3.155 2.671)">
            <g id="Grupo_720" data-name="Grupo 720" transform="translate(0 0)">
              <path id="Trazado_309" data-name="Trazado 309" d="M12.281.155a10.492,10.492,0,1,0,8.554,12.124A10.492,10.492,0,0,0,12.281.155Z" transform="translate(0 0)" fill-rule="evenodd"/>
            </g>
          </g>
          <g id="Grupo_723" data-name="Grupo 723" transform="translate(17.071 4.763)">
            <g id="Grupo_722" data-name="Grupo 722">
              <path id="Trazado_310" data-name="Trazado 310" d="M3.088.039a2.638,2.638,0,1,0,2.15,3.049A2.637,2.637,0,0,0,3.088.039Z" fill="#fff" fill-rule="evenodd"/>
            </g>
          </g>
        </g>
        <g id="Grupo_725" data-name="Grupo 725" transform="translate(77.903 0.083)">
          <path id="Trazado_311" data-name="Trazado 311" d="M14.1,2.176a56.546,56.546,0,0,0-10.6,5.2C2.206,8.163,1.073,8.9,0,9.6c.245.074.489.147.734.225a50.667,50.667,0,0,1,18.13-3.378c28.341,0,51.991,23.649,51.991,51.991a50.606,50.606,0,0,1-.646,7.912l.008.024c.535,1.385,1.031,2.791,1.468,4.227,2.3,7.538,2.751,15.783,2.754,23.677a50.756,50.756,0,0,1-3.707,19.013c.075,1.121.122,2.249.122,3.388,0,28.342-23.65,51.991-51.991,51.991a50.645,50.645,0,0,1-10.713-1.152c13.869,10.567,27,7.842,27.621,7.7C61.477,169.571,69.919,143.172,70,142.9q.422-1.374.806-2.748c4.143-14.784,7.6-29.688,9.273-44.971,1.564-14.4-.635-28.222-3.165-42.393-1.758-9.859-4.825-19.658-9.735-28.1C61.124,14.257,52.266,5.863,39.621,1.968A40.33,40.33,0,0,0,14.1,2.176Z" fill="#e5e5e5"/>
        </g>
      </g>
      <path id="Trazado_312" data-name="Trazado 312" d="M.094,16.054c-.294,5.307.031,11.06,2.03,16.087,2.472,6.222,7.6,9.034,12.041,13.53a60.421,60.421,0,0,1,4.159,4.783A38.43,38.43,0,0,1,22.395,56a18.748,18.748,0,0,1,1.979,11.189q-.119.99-.254,1.982s-.408,6.589-.766,8.791S29.623,76.2,29.623,76.2s7.969-4.3,10.007-5.5c.115-.067.16-.132.157-.195a39.055,39.055,0,0,0,4.819-3.591C50.094,62.1,54.14,55.4,53.966,47.85A23.464,23.464,0,0,0,52.8,41.185c-3-9.282-9.045-15.036-15.1-22.218C33.573,14.074,30.094,8.5,25.2,4.338,14.434-4.839.916,1.237.094,16.054Z" transform="translate(148.083 93.464)" fill="#010101"/>
      <path id="Trazado_313" data-name="Trazado 313" d="M22.571.063h.006l.073.018A25.819,25.819,0,0,1,27.7,2.238s8.106,4.029,10.184,5.156c.121.067.163.127.163.194a38.338,38.338,0,0,1,4.938,3.423,31.3,31.3,0,0,1,4.835,4.9,23.3,23.3,0,0,1,5.059,11.959A17.522,17.522,0,0,1,53,29.743a23.587,23.587,0,0,1-.939,6.7,35.854,35.854,0,0,1-2.878,7.082c-.424.812-.885,1.593-1.357,2.363-.194.315-.394.63-.6.939-1.108,1.714-2.32,3.356-3.593,4.98-.036.049-.073.091-.109.139-1.127,1.442-2.3,2.872-3.477,4.332-.775.945-1.545,1.9-2.32,2.884-.23.3-.46.593-.685.891-3.665,4.8-6.846,10.075-11.311,14.153a19.621,19.621,0,0,1-3.659,2.666c-5.937,3.338-12.3,2.454-16.642-1.708A18.312,18.312,0,0,1,.234,63.349C-.239,58.054-.112,52.3,1.718,47.2,3.978,40.9,9,37.916,13.29,33.275a60.039,60.039,0,0,0,3.992-4.925,38.541,38.541,0,0,0,3.883-5.677,18.576,18.576,0,0,0,1.666-10.705v-.006c-.018-.181-.042-.357-.073-.539-.1-.654-.206-1.315-.321-1.975,0,0-.63-6.567-1.06-8.761C21.244.02,21.777-.095,22.571.063Z" transform="translate(150.288 20.185)" fill="#010101"/>
    </g>
  </g>
</svg>
