<svg xmlns="http://www.w3.org/2000/svg" xmlns:xlink="http://www.w3.org/1999/xlink" viewBox="0 0 500.5 352.23"><defs><style>.cls-1{fill:none;}.cls-2{clip-path:url(#clip-path);}.cls-3,.cls-5{fill:#1c1c1c;}.cls-3,.cls-4,.cls-6,.cls-7,.cls-8{fill-rule:evenodd;}.cls-4{fill:#111;}.cls-6{fill:#fff;}.cls-8{fill:#ea8378;}.cls-9{fill:#444;}</style><clipPath id="clip-path"><path class="cls-1" d="M420.65,35.5H46.47V343.1c3.89,3.15,18.34,2.66,23.48,3.33,7.47,1,14.93,2,22.4,3.09,9,1.29,17.49,1.23,26.49,3q16.59,3.25,33.35,5.65a672,672,0,0,0,67.34,6.18,673.48,673.48,0,0,0,134.86-8,664.52,664.52,0,0,0,66.12-14.16c.6-44.09.14-88.2.14-132.28V35.5Z"/></clipPath></defs><title>go_1</title><g id="Capa_2" data-name="Capa 2"><g class="cls-2"><path class="cls-3" d="M171.16,364.83c-19.76,1.69-38.42-8.5-49.15-24.85-12.78-19.48-12.87-42.54-19.8-64-4-12.52-9.77-24.8-18.1-35.08-6.39-7.89-16.94-8.29-24.41-1.45-4.58,4.19-7.16,10.17-8.43,16.23-2.5,11.94-.32,24.48,4.14,35.84,10.63,27,31.21,55.76,53.87,74,17.62,14.15,39,24.08,61.88,24.74Z"/><path class="cls-4" d="M304.17,241.69c.73.37,1.45.76,2.16,1.2,22.25,13.75,32.45,43.15,37.49,67.36,2.87,13.83,5.36,26.8,9.93,40.29,5.08,15,11.53,32.71,7.07,48.68-7.3,26.19-42.35,23.28-65.39,27.6-5,.49-10,.85-15,1.11-20.85,1.1-41.78.41-62.66-.84-4.18-.26-8.36-.55-12.61-.84-26.92-.84-59.06-15.39-54.68-45.95,2.93-20.37,13.15-37.83,20.3-55.32,1.6-4.11,3.29-8.21,5-12.3,8.8-20.44,19.33-40.51,26.74-59.87,34.5-.59,56.71.63,91.21,0C302.28,252.71,296.38,237.8,304.17,241.69Z"/><path class="cls-5" d="M378.42,238.79c-50,45.42-178.44,45-223.58,12-68.42-50-36.91-131.53-36.91-131.53-6.88-16.28-2.65-71.87-2.65-71.87,34.4-3,65.36,17.51,65.36,17.51a153.17,153.17,0,0,1,23.07-9.58,160.27,160.27,0,0,1,23-5.57,174.49,174.49,0,0,1,22.45-2.24,193.8,193.8,0,0,1,20.13.33h0a211.31,211.31,0,0,1,22.38,2.75c7.39,1.3,14.16,2.88,20.14,4.51a181.47,181.47,0,0,1,28,9.8c43-14.56,61.92-9.42,61.92-9.42,9.46,16.27.86,66,.86,66C433.45,192.53,378.42,238.79,378.42,238.79Z"/><path class="cls-6" d="M288.06,154.72a30.53,30.53,0,1,1,35.28,24.8A30.43,30.43,0,0,1,288.06,154.72Z"/><path class="cls-7" d="M294,154.05a23.84,23.84,0,1,1,27.55,19.36A23.77,23.77,0,0,1,294,154.05Z"/><path class="cls-6" d="M311.61,170.27a6,6,0,1,1,6.92,4.86A6,6,0,0,1,311.61,170.27Z"/><path class="cls-6" d="M232.88,154.72a30.53,30.53,0,1,0-35.29,24.8A30.44,30.44,0,0,0,232.88,154.72Z"/><path class="cls-7" d="M226.91,154.05a23.84,23.84,0,1,0-27.54,19.36A23.75,23.75,0,0,0,226.91,154.05Z"/><path class="cls-6" d="M209.61,170.71a6,6,0,1,0-6.92,4.86A6,6,0,0,0,209.61,170.71Z"/><path class="cls-8" d="M274.73,167a4.62,4.62,0,0,0-3.48-2.9H250c-1.63.31-5.08,1.51-3.67,6.17a7,7,0,0,0,2,2.6,17.71,17.71,0,0,0,24.22,0,7.16,7.16,0,0,0,2-2.6A5.71,5.71,0,0,0,274.73,167Z"/><path class="cls-9" d="M326.3,186.54A116,116,0,0,0,348,179.31a1.11,1.11,0,0,0,.39-1.51,1.12,1.12,0,0,0-1.51-.39,113.35,113.35,0,0,1-21.18,7c-1.38.31-.79,2.43.59,2.12Z"/><path class="cls-9" d="M328.09,190.13a102.09,102.09,0,0,1,20.59,7.56c1.27.63,2.39-1.27,1.12-1.9A104.77,104.77,0,0,0,328.68,188a1.1,1.1,0,0,0-.59,2.12Z"/><path class="cls-9" d="M324.12,195.06l15.49,13.05a1.14,1.14,0,0,0,1.56,0,1.11,1.11,0,0,0,0-1.56L325.68,193.5a1.13,1.13,0,0,0-1.56,0,1.11,1.11,0,0,0,0,1.56Z"/><path class="cls-9" d="M189.63,181.5a52.19,52.19,0,0,0-19.89-8.82,53.73,53.73,0,0,0-6.3-.92,1.11,1.11,0,0,0-1.11,1.1,1.14,1.14,0,0,0,1.11,1.1,50.22,50.22,0,0,1,20,6.17,51.48,51.48,0,0,1,5.11,3.27,1.1,1.1,0,1,0,1.11-1.9Z"/><path class="cls-9" d="M181,182.61a35.35,35.35,0,0,0-19.06,0,1.1,1.1,0,0,0,.59,2.12,33.1,33.1,0,0,1,17.88,0,1.1,1.1,0,0,0,.59-2.12Z"/><path class="cls-9" d="M184.8,186.68l-19,9.07a1.1,1.1,0,0,0-.39,1.51,1.13,1.13,0,0,0,1.51.39l19-9.07a1.11,1.11,0,0,0,.4-1.51,1.13,1.13,0,0,0-1.51-.39Z"/><path class="cls-7" d="M231.33,81.32c-.3,4.41-1,9-3.48,12.67s-7,6.34-11.32,5.44c-4.1-.86-7.06-4.6-8.34-8.57s-1.18-8.22-1.3-12.39a112.41,112.41,0,0,0-3.18-23.16,160.27,160.27,0,0,1,23-5.57A76,76,0,0,1,231.33,81.32Z"/><path class="cls-7" d="M267.38,83.66c-2.18,4.65-7.35,8.63-12.22,7-4.47-1.51-6.31-6.72-7.25-11.32-2.17-10.53-2.66-21.93,1.21-31.82a193.8,193.8,0,0,1,20.13.33,43.92,43.92,0,0,0-.48,11.73C269.39,67.68,270.84,76.28,267.38,83.66Z"/><path class="cls-7" d="M311.77,55.09a49,49,0,0,1-10.9,29.66,18,18,0,0,1-5.44,4.81,8.21,8.21,0,0,1-7.06.49c-2.69-1.22-4.21-4.23-4.46-7.16s.52-5.86,1.29-8.7q3.23-11.81,6.43-23.61C299,51.88,305.79,53.46,311.77,55.09Z"/><path class="cls-7" d="M138,103.13c-1.87-4-3.76-8-4.59-12.32s-.54-9,1.75-12.76,6.85-6.29,11.16-5.39c3.19.66,5.75,3,8.13,5.17,1.22,1.13,2.51,2.38,2.77,4,.34,2.05-1,4-2.33,5.58A203.52,203.52,0,0,1,136,107.68"/><path class="cls-7" d="M359.4,79.14c2.66-3.31,5.43-6.72,9.19-8.72s8.81-2.24,12,.58c2.33,2,3.24,5.34,3.11,8.44a31.52,31.52,0,0,1-2.2,9c-.92,2.6-2.2,5.56-4.87,6.3-2.29.63-4.63-.68-6.61-2a114.11,114.11,0,0,1-13.49-10.49"/><path class="cls-9" d="M261.34,183.4a7.62,7.62,0,0,1-3,6.55,7.27,7.27,0,0,1-7.08.85,7.14,7.14,0,0,1-3.22-2.44,1.14,1.14,0,0,0-1.51-.4,1.11,1.11,0,0,0-.4,1.51,9.92,9.92,0,0,0,8.25,4.08,9.47,9.47,0,0,0,7.93-4.87,9.57,9.57,0,0,0,1.24-5.28,1.13,1.13,0,0,0-1.11-1.1,1.11,1.11,0,0,0-1.1,1.1Z"/><path class="cls-9" d="M262.15,182.34c-2.06.86-1.36,3.09-.66,4.68a18.39,18.39,0,0,0,1.09,2.23,5.82,5.82,0,0,0,2.47,2.19c3.7,1.8,8.14.73,11.17-1.88a10.17,10.17,0,0,0,3.34-5.57,1.11,1.11,0,1,0-2.13-.59,8.61,8.61,0,0,1-5.61,6.24,7.91,7.91,0,0,1-4.28.35,5.73,5.73,0,0,1-2.25-1,4.33,4.33,0,0,1-1.2-1.66,15.38,15.38,0,0,1-.93-2.08,4,4,0,0,1-.15-.49c0-.08,0-.16,0-.23,0,.16,0-.06,0-.1v-.2c0-.14,0,.18,0,0-.06.21-.05.09,0,0a.63.63,0,0,1-.24.19,1.14,1.14,0,0,0,.77-1.36,1.11,1.11,0,0,0-1.36-.76Z"/><path class="cls-3" d="M195,280.75a8.92,8.92,0,0,0-2.32,2.17c-2,2.81-3.31,7.05-4.74,10.22-5.25,11.61-9.22,24-9.58,36.74-.18,6.24.56,12.63,3.28,18.25,4.43,9.16,13.71,15.25,23.47,18.2,7.35,2.21,16.1,2.61,21.92-2.36,3.81-3.26,5.64-8.19,7.32-12.9,4.52-12.68,9.09-25.58,9.71-39,.17-3.7,2-7.25,2.9-10.8,1.2-4.7.39-6.85-2.55-10.7a37.71,37.71,0,0,0-43.23-12.61A28.65,28.65,0,0,0,195,280.75Z"/><path class="cls-3" d="M326.14,280.75a8.92,8.92,0,0,1,2.32,2.17c2,2.81,3.31,7.05,4.75,10.22,5.24,11.61,9.22,24,9.58,36.74.17,6.24-.56,12.63-3.28,18.25-4.44,9.16-13.71,15.25-23.48,18.2-7.34,2.21-16.09,2.61-21.92-2.36-3.81-3.26-5.64-8.19-7.32-12.9-4.52-12.68-9.09-25.58-9.71-39-.17-3.7-2-7.25-2.9-10.8-1.2-4.7-.38-6.85,2.55-10.7A37.72,37.72,0,0,1,320,277.94,28.65,28.65,0,0,1,326.14,280.75Z"/></g></g></svg>