<svg xmlns="http://www.w3.org/2000/svg" width="40" height="40" viewBox="0 0 26.66 32.268"><g transform="translate(5.997 17.659)"><g transform="translate(0 6.266)"><path d="M1294.158,212.466l11.934,6.193-6.719-8.343Z" transform="translate(-1294.158 -210.316)" fill="#a7e3e3"/></g><g transform="translate(10.823 1.804)"><path d="M1316.22,203.372l1.112,10.654,4.1-12.8Z" transform="translate(-1316.22 -201.222)" fill="#00b3b3"/></g><g transform="translate(5.215 3.954)"><path d="M1304.79,207.916l6.719,8.343L1310.4,205.6Z" transform="translate(-1304.79 -205.604)" fill="#61cecf"/></g><g transform="translate(6.781 0.003)"><path d="M1313.089,197.549l-5.107,2.105,4.041,1.846,1.072-3.95Z" transform="translate(-1307.982 -197.549)" fill="#d2efef"/></g><g transform="translate(1.674 2.108)"><path d="M1302.678,201.841l-5.107,2.105,3.543,2.047Z" transform="translate(-1297.571 -201.841)" fill="#a7e3e3"/></g><g transform="translate(5.217 2.108)"><path d="M1304.793,205.993l0,0,5.6-2.309-4.041-1.846Z" transform="translate(-1304.793 -201.841)" fill="#fff"/></g><g transform="translate(0 4.214)"><path d="M1295.833,206.132l-1.674,4.2,5.215-2.15,0-.005Z" transform="translate(-1294.158 -206.132)" fill="#d2efef"/></g><g transform="translate(11.895)"><path d="M1318.406,197.543v0l4.144,1.8.007,0Z" transform="translate(-1318.405 -197.543)" fill="#50cccb"/></g><g transform="translate(10.823 0.005)"><path d="M1316.22,201.5l5.215-2.15-4.144-1.8Z" transform="translate(-1316.22 -197.553)" fill="#66d8d9"/></g><g transform="translate(9.089 1.174)"><path d="M1313.274,199.937l.5.8.916-.212-.8.5.212.917-.5-.8-.916.212.8-.495Z" transform="translate(-1312.686 -199.937)" fill="#fff"/></g><g transform="translate(4.788 8.504)"><path d="M1304.507,214.878l.5.8.916-.212-.8.495.212.917-.5-.8-.917.212.8-.5Z" transform="translate(-1303.92 -214.878)" fill="#fff"/></g><g transform="translate(6.885 6.331)"><path d="M1308.782,210.448l.495.8.916-.212-.8.5.213.916-.5-.8-.918.213.8-.5Z" transform="translate(-1308.193 -210.448)" fill="#fff"/></g><g transform="translate(2.364 4.475)"><path d="M1299.565,206.666l.5.8.917-.212-.8.495.212.917-.495-.8-.917.213.8-.5Z" transform="translate(-1298.978 -206.666)" fill="#fff"/></g></g><g transform="translate(13.759 0)"><g transform="translate(4.775 3.814)"><path d="M1327.84,170.241l-8.127,6.22,3.933-7.142Z" transform="translate(-1319.713 -169.319)" fill="#a7e3e3"/></g><g transform="translate(0.005 1.9)"><path d="M1314.185,166.341l.575,8.133-4.769-9.055Z" transform="translate(-1309.992 -165.419)" fill="#00b3b3"/></g><g transform="translate(4.199 2.822)"><path d="M1323.049,168.29l-3.933,7.142-.575-8.133Z" transform="translate(-1318.54 -167.298)" fill="#61cecf"/></g><g transform="translate(2.873 0.001)"><path d="M1315.842,161.547l4.107.9-2.785,1.918-1.326-2.819Z" transform="translate(-1315.838 -161.547)" fill="#d2efef"/></g><g transform="translate(6.984 0.904)"><path d="M1324.218,163.388l4.106.9-2.385,2Z" transform="translate(-1324.218 -163.388)" fill="#a7e3e3"/></g><g transform="translate(4.199 0.904)"><path d="M1323.047,166.294l0,0-4.5-.99,2.785-1.918Z" transform="translate(-1318.54 -163.388)" fill="#fff"/></g><g transform="translate(8.706 1.807)"><path d="M1330.112,165.228l1.811,2.929-4.194-.922,0,0Z" transform="translate(-1327.727 -165.228)" fill="#d2efef"/></g><path d="M1312.853,161.545v0l-2.868,1.9h-.005Z" transform="translate(-1309.981 -161.545)" fill="#50cccb"/><g transform="translate(0.005 0.003)"><path d="M1314.185,164.371l-4.194-.922,2.868-1.9Z" transform="translate(-1309.992 -161.552)" fill="#66d8d9"/></g><g transform="translate(3.71 0.587)"><path d="M1318.524,162.741l-.266.665-.715-.038.665.266-.038.715.266-.665.715.038-.665-.265Z" transform="translate(-1317.543 -162.741)" fill="#fff"/></g><g transform="translate(7.903 5.512)"><path d="M1327.071,172.781l-.266.665-.714-.038.664.265-.038.715.266-.665.715.038-.665-.266Z" transform="translate(-1326.091 -172.781)" fill="#fff"/></g><g transform="translate(6.043 4.161)"><path d="M1323.28,170.026l-.265.665-.715-.038.665.266-.038.715.265-.665.716.038-.666-.265Z" transform="translate(-1322.3 -170.026)" fill="#fff"/></g><g transform="translate(9.188 2.172)"><path d="M1329.69,165.973l-.266.665-.715-.038.665.265-.038.715.265-.665.716.038-.666-.266Z" transform="translate(-1328.709 -165.973)" fill="#fff"/></g></g><g transform="translate(0 5.358)"><path d="M1289.138,176.953l-.385,2.341-2.341.385,2.341.386.385,2.341.386-2.341,2.344-.386-2.344-.385Z" transform="translate(-1284.216 -174.752)" fill="#61cecf"/><path d="M1286.856,182.323l-.7-4.232-4.227-.7,4.227-.7.7-4.231.7,4.231,4.233.7-4.233.7Zm-.527-4.928.454.075.074.451.074-.451.455-.075-.455-.075-.074-.452-.074.452Z" transform="translate(-1281.934 -172.467)" fill="#61cecf"/></g></svg>