<svg xmlns="http://www.w3.org/2000/svg" width="40" height="40" viewBox="0 0 26.304 32.268"><g transform="translate(-561.424 -114.279)"><g transform="translate(566.043 131.938)"><g transform="translate(0 0)"><g transform="translate(4.11 6.266)"><path d="M1061.967,212.86l-11.934,6.193,6.719-8.343Z" transform="translate(-1050.033 -210.71)" fill="#a7e3e3"/></g><g transform="translate(0.007 1.804)"><path d="M1046.883,203.765l-1.112,10.654-4.1-12.8Z" transform="translate(-1041.668 -201.615)" fill="#00b3b3"/></g><g transform="translate(4.11 3.954)"><path d="M1056.752,208.309l-6.719,8.343L1051.145,206Z" transform="translate(-1050.033 -205.998)" fill="#61cecf"/></g><g transform="translate(4.15 0.003)"><path d="M1050.12,197.942l5.107,2.105-4.042,1.846-1.072-3.95Z" transform="translate(-1050.114 -197.942)" fill="#d2efef"/></g><g transform="translate(9.263 2.108)"><path d="M1060.537,202.234l5.107,2.105-3.543,2.047Z" transform="translate(-1060.537 -202.234)" fill="#a7e3e3"/></g><g transform="translate(5.222 2.108)"><path d="M1057.9,206.387l0,0-5.6-2.309,4.042-1.846Z" transform="translate(-1052.299 -202.234)" fill="#fff"/></g><g transform="translate(10.828 4.214)"><path d="M1067.269,206.526l1.674,4.2-5.215-2.15,0-.005Z" transform="translate(-1063.726 -206.526)" fill="#d2efef"/></g><path d="M1045.8,197.937v0l-4.144,1.8-.007,0Z" transform="translate(-1041.654 -197.937)" fill="#50cccb"/><g transform="translate(0.007 0.005)"><path d="M1046.883,201.9l-5.215-2.15,4.144-1.8Z" transform="translate(-1041.668 -197.946)" fill="#66d8d9"/></g></g><g transform="translate(4.956 1.174)"><path d="M1053.169,200.33l-.5.8-.916-.212.8.5-.212.917.5-.8.916.212-.8-.495Z" transform="translate(-1051.757 -200.33)" fill="#fff"/></g><g transform="translate(9.257 8.504)"><path d="M1061.936,215.271l-.5.8-.916-.212.8.495-.212.917.5-.8.917.212-.8-.5Z" transform="translate(-1060.525 -215.271)" fill="#fff"/></g><g transform="translate(7.16 6.331)"><path d="M1057.66,210.841l-.495.8-.916-.212.8.5-.213.916.5-.8.917.213-.8-.5Z" transform="translate(-1056.249 -210.841)" fill="#fff"/></g><g transform="translate(11.681 4.475)"><path d="M1066.878,207.06l-.5.8-.917-.212.8.495-.212.917.495-.8.917.213-.8-.5Z" transform="translate(-1065.466 -207.06)" fill="#fff"/></g></g><g transform="translate(561.424 114.279)"><g transform="translate(0 0)"><g transform="translate(0 3.814)"><path d="M1032.239,170.634l8.127,6.22-3.933-7.142Z" transform="translate(-1032.239 -169.712)" fill="#a7e3e3"/></g><g transform="translate(8.127 1.9)"><path d="M1049.381,166.734l-.576,8.133,4.769-9.055Z" transform="translate(-1048.806 -165.812)" fill="#00b3b3"/></g><g transform="translate(4.194 2.822)"><path d="M1040.788,168.683l3.933,7.142.575-8.133Z" transform="translate(-1040.788 -167.692)" fill="#61cecf"/></g><g transform="translate(5.917 0.001)"><path d="M1048.408,161.941l-4.107.9,2.785,1.918,1.326-2.819Z" transform="translate(-1044.301 -161.941)" fill="#d2efef"/></g><g transform="translate(1.811 0.904)"><path d="M1040.037,163.781l-4.106.9,2.385,2Z" transform="translate(-1035.93 -163.781)" fill="#a7e3e3"/></g><g transform="translate(4.196 0.904)"><path d="M1040.792,166.687l0,0,4.5-.99-2.785-1.918Z" transform="translate(-1040.792 -163.781)" fill="#fff"/></g><g transform="translate(0 1.807)"><path d="M1034.05,165.622l-1.811,2.929,4.194-.922,0,0Z" transform="translate(-1032.239 -165.622)" fill="#d2efef"/></g><g transform="translate(10.028)"><path d="M1052.683,161.939v0l2.868,1.9h.005Z" transform="translate(-1052.681 -161.939)" fill="#50cccb"/></g><g transform="translate(8.703 0.003)"><path d="M1049.979,164.764l4.194-.922-2.868-1.9Z" transform="translate(-1049.979 -161.946)" fill="#66d8d9"/></g></g><g transform="translate(7.584 0.587)"><path d="M1048.326,163.135l.266.665.715-.038-.665.266.038.715-.266-.665-.715.038.665-.265Z" transform="translate(-1047.699 -163.135)" fill="#fff"/></g><g transform="translate(3.391 5.512)"><path d="M1039.779,173.175l.266.665.714-.038-.664.265.038.715-.266-.665-.715.038.665-.266Z" transform="translate(-1039.152 -173.175)" fill="#fff"/></g><g transform="translate(5.25 4.161)"><path d="M1043.569,170.42l.265.665.715-.038-.665.266.038.715-.265-.665-.716.038.666-.265Z" transform="translate(-1042.941 -170.42)" fill="#fff"/></g><g transform="translate(2.107 2.172)"><path d="M1037.16,166.366l.266.665.715-.038-.665.265.038.715-.265-.665-.716.038.666-.266Z" transform="translate(-1036.533 -166.366)" fill="#fff"/></g></g><g transform="translate(577.875 120.708)"><path d="M1072.987,179.532l.385,2.341,2.341.385-2.341.386-.385,2.341-.386-2.341-2.344-.386,2.344-.385Z" transform="translate(-1068.057 -177.331)" fill="#61cecf"/><path d="M1070.7,184.9l-.7-4.231-4.233-.7,4.233-.7.7-4.231.7,4.231,4.227.7-4.227.7Zm-.53-4.927.455.075.075.452.074-.452.455-.075-.455-.075-.074-.452-.075.452Z" transform="translate(-1065.773 -175.046)" fill="#61cecf"/></g></g></svg>