<svg id="Capa_1" data-name="Capa 1" xmlns="http://www.w3.org/2000/svg" xmlns:xlink="http://www.w3.org/1999/xlink" viewBox="0 0 190.63 150">
<defs>
<style>
  .cls-1{fill:none;}
  .cls-2{clip-path:url(#clip-path);}
  .cls-11,.cls-3{fill:#282828;}
  .cls-3{opacity:0.2;}
  .cls-4{fill:#232323;}
  .cls-5{clip-path:url(#clip-path-2);}
  .cls-6{fill:#182a3f;}
  .cls-7{fill:#24406b;}
  .cls-8{fill:#060606;}
  .cls-9{fill:#f7f7f7;}
  .cls-10,.cls-11,.cls-12{fill-rule:evenodd;}
  .cls-12,.cls-14{fill:#fff;}
  .cls-13{fill:#e3e3e3;}
  .cls-15{fill:url(#Degradado_sin_nombre_2);}

  /* === ANIMATIONS === */

  /* Breathing bob */
  @keyframes breathe {
    0%, 100% { transform: translateY(0); }
    50% { transform: translateY(-1.5px); }
  }
  #panda-body { animation: breathe 3s ease-in-out infinite; }

  /* Eye blink */
  @keyframes blink {
    0%, 88%, 100% { transform: scaleY(1); }
    94% { transform: scaleY(0.05); }
  }
  #eyes-group {
    animation: blink 3.5s ease-in-out infinite;
    transform-origin: 96px 70px;
  }

  /* Eye look - eyes shift left/right like looking at participants */
  @keyframes eyeLook {
    0%, 20%, 100% { transform: translateX(0); }
    25%, 45% { transform: translateX(-1.5px); }
    50%, 70% { transform: translateX(1.5px); }
    75%, 95% { transform: translateX(0); }
  }
  #eye-pupils {
    animation: eyeLook 6s ease-in-out infinite;
  }

  /* Ear perk - like hearing someone talk */
  @keyframes earPerkL {
    0%, 60%, 100% { transform: rotate(0deg) scale(1); }
    65% { transform: rotate(-4deg) scale(1.05); }
    70% { transform: rotate(-2deg) scale(1.02); }
    75% { transform: rotate(0deg) scale(1); }
  }
  @keyframes earPerkR {
    0%, 40%, 100% { transform: rotate(0deg) scale(1); }
    45% { transform: rotate(4deg) scale(1.05); }
    50% { transform: rotate(2deg) scale(1.02); }
    55% { transform: rotate(0deg) scale(1); }
  }
  #ear-left {
    animation: earPerkL 4s ease-in-out infinite;
    transform-origin: 42px 0px;
  }
  #ear-right {
    animation: earPerkR 4s ease-in-out infinite;
    transform-origin: 155px 0px;
  }

  /* Phone tilt - adjusting grip */
  @keyframes phoneTilt {
    0%, 100% { transform: rotate(0deg); }
    30% { transform: rotate(-2deg); }
    70% { transform: rotate(2deg); }
  }
  #phone-group {
    animation: phoneTilt 5s ease-in-out infinite;
    transform-origin: 96px 120px;
  }

  /* Phone screen glow - active call */
  @keyframes screenGlow {
    0%, 100% { filter: brightness(1); opacity: 1; }
    50% { filter: brightness(1.3); opacity: 0.9; }
  }
  #phone-screen {
    animation: screenGlow 2s ease-in-out infinite;
  }

  /* Recording indicator blink - video icon */
  @keyframes recBlink {
    0%, 40%, 100% { opacity: 1; }
    50%, 90% { opacity: 0.3; }
  }
  #video-icon {
    animation: recBlink 1.5s ease-in-out infinite;
  }

  /* User avatars float and pulse - like connecting */
  @keyframes floatUser1 {
    0%, 100% { transform: translateY(0) scale(1); }
    50% { transform: translateY(-4px) scale(1.08); }
  }
  @keyframes floatUser2 {
    0%, 100% { transform: translateY(0) scale(1); }
    50% { transform: translateY(-3px) scale(1.06); }
  }
  @keyframes floatUser3 {
    0%, 100% { transform: translateY(0) scale(1); }
    50% { transform: translateY(-5px) scale(1.1); }
  }
  @keyframes floatUser4 {
    0%, 100% { transform: translateY(0) scale(1); }
    50% { transform: translateY(-3.5px) scale(1.07); }
  }

  /* Ring pulse around avatars */
  @keyframes ringPulse {
    0%, 70%, 100% { r: 10; opacity: 0; stroke-width: 0.5; }
    80% { r: 14; opacity: 0.5; stroke-width: 0.3; }
    90% { r: 17; opacity: 0; stroke-width: 0.1; }
  }

  #user-tl {
    animation: floatUser1 3s ease-in-out infinite;
    transform-origin: 7px 97px;
  }
  #user-bl {
    animation: floatUser2 3.5s ease-in-out infinite 0.5s;
    transform-origin: 18px 128px;
  }
  #user-tr {
    animation: floatUser3 2.8s ease-in-out infinite 0.3s;
    transform-origin: 184px 97px;
  }
  #user-br {
    animation: floatUser4 3.2s ease-in-out infinite 0.7s;
    transform-origin: 172px 128px;
  }

  #ring-tl { animation: ringPulse 4s ease-out infinite; }
  #ring-bl { animation: ringPulse 4s ease-out infinite 1s; }
  #ring-tr { animation: ringPulse 4s ease-out infinite 2s; }
  #ring-br { animation: ringPulse 4s ease-out infinite 3s; }

  /* Whiskers twitch */
  @keyframes whiskerTwitchL {
    0%, 75%, 100% { transform: rotate(0deg); }
    80% { transform: rotate(-2deg); }
    85% { transform: rotate(1deg); }
    90% { transform: rotate(0deg); }
  }
  @keyframes whiskerTwitchR {
    0%, 75%, 100% { transform: rotate(0deg); }
    80% { transform: rotate(2deg); }
    85% { transform: rotate(-1deg); }
    90% { transform: rotate(0deg); }
  }
  #whiskers-left {
    animation: whiskerTwitchL 3s ease-in-out infinite;
    transform-origin: 56px 87px;
  }
  #whiskers-right {
    animation: whiskerTwitchR 3s ease-in-out infinite 0.2s;
    transform-origin: 148px 87px;
  }

  /* Head tilt - engaged in conversation */
  @keyframes headTilt {
    0%, 100% { transform: rotate(0deg); }
    25% { transform: rotate(-1.5deg); }
    75% { transform: rotate(1.5deg); }
  }
  #head-group {
    animation: headTilt 5s ease-in-out infinite;
    transform-origin: 96px 60px;
  }

  /* Shadow breathe sync */
  @keyframes shadowBreath {
    0%, 100% { transform: scaleX(1); opacity: 0.2; }
    50% { transform: scaleX(1.04); opacity: 0.15; }
  }
  #shadow {
    animation: shadowBreath 3s ease-in-out infinite;
    transform-origin: 91px 15px;
  }

  /* Headband shimmer */
  @keyframes headbandShine {
    0%, 100% { opacity: 1; }
    50% { opacity: 0.7; }
  }
  #headband {
    animation: headbandShine 4s ease-in-out infinite;
  }

  /* Hands grip - subtle squeeze */
  @keyframes gripLeft {
    0%, 100% { transform: scaleX(1); }
    50% { transform: scaleX(1.02); }
  }
  @keyframes gripRight {
    0%, 100% { transform: scaleX(1); }
    50% { transform: scaleX(0.98); }
  }
  #hand-left {
    animation: gripLeft 3s ease-in-out infinite;
    transform-origin: 55px 136px;
  }
  #hand-right {
    animation: gripRight 3s ease-in-out infinite;
    transform-origin: 136px 136px;
  }
</style>

<clipPath id="clip-path">
  <path class="cls-1" d="M101.34-54.86H88.22a75.72,75.72,0,0,1-75.51-75.5v-9.43C6-182.72,19.32-202.7,60.85-202.7H126.9c41.53,0,60.11,29.76,49.95,62.91v9.43A75.72,75.72,0,0,1,101.34-54.86Z"/>
</clipPath>
<clipPath id="clip-path-2">
  <path class="cls-1" d="M0,0H190.63a0,0,0,0,1,0,0V143.43a6.57,6.57,0,0,1-6.57,6.57H0a0,0,0,0,1,0,0V0A0,0,0,0,1,0,0Z"/>
</clipPath>
<linearGradient id="Degradado_sin_nombre_2" x1="93.79" y1="1276.6" x2="98.11" y2="1276.6" gradientTransform="matrix(1, 0, 0, -1, 0, 1421.98)" gradientUnits="userSpaceOnUse">
  <stop offset="0"/>
  <stop offset="0.69" stop-color="#090909"/>
  <stop offset="0.94" stop-color="#111"/>
  <stop offset="1" stop-color="#141414"/>
</linearGradient>
</defs>

<title>Panditas</title>

<!-- EARS (outside clip for independence) -->
<g class="cls-2">
  <!-- Shadow -->
  <g id="shadow">
    <path class="cls-3" d="M21.91,14.71C21.91,8.43,53,3.33,91.41,3.33s69.5,5.1,69.5,11.38S129.8,26.08,91.41,26.08,21.91,21,21.91,14.71Z"/>
  </g>

  <!-- EARS -->
  <g id="ear-right">
    <path d="M140.83-11.84s4.15,22.89,1,26.27a23.28,23.28,0,0,1-26.72-1.32A22,22,0,0,1,109,2.6l-.64-23,28.72-.79Z"/>
    <path class="cls-4" d="M142.38,11.3a41.05,41.05,0,0,0-9.95,3.45c-2.3,1-6.26,3.57-8.88,2.51,3.82,1.55,8.71.87,12.54-.25,2.5-.73,7.63-2.06,6.62-5.76Z"/>
  </g>
  <g id="ear-left">
    <path d="M42-12.14s-5.19,23.08-2,26.45A23.28,23.28,0,0,0,66.72,13a22,22,0,0,0,6-10.5l.64-23-28.72-.79Z"/>
    <path class="cls-4" d="M39.41,11.18a41.48,41.48,0,0,1,10,3.45c2.3,1,6.26,3.58,8.88,2.52-3.82,1.54-8.7.87-12.54-.26-2.49-.73-7.63-2.06-6.62-5.76Z"/>
  </g>
</g>

<g class="cls-5">

<!-- USER AVATARS with ring pulses -->
<!-- Top-left user -->
<g id="user-tl">
  <circle id="ring-tl" cx="7" cy="97" r="10" fill="none" stroke="#24406b" stroke-width="0.5" opacity="0"/>
  <path class="cls-7" d="M6.94,90.54A6.93,6.93,0,1,1,0,97.47a6.94,6.94,0,0,1,6.94-6.93Zm4.84,10.85a6.25,6.25,0,1,0-9.73,0l.05,0a1.86,1.86,0,0,1,0-.19,4.85,4.85,0,0,1,2.91-3.26.77.77,0,0,1,.56,0,2.88,2.88,0,0,0,2.32.08,1.31,1.31,0,0,1,1.35.13c.25.15.48.31.71.48a4.91,4.91,0,0,1,1.78,2.85Z"/>
  <path class="cls-7" d="M6.92,92.53A2.48,2.48,0,1,1,4.46,95v0a2.45,2.45,0,0,1,2.43-2.46Z"/>
</g>

<!-- Bottom-left user -->
<g id="user-bl">
  <circle id="ring-bl" cx="18" cy="128" r="10" fill="none" stroke="#182a3f" stroke-width="0.5" opacity="0"/>
  <path class="cls-6" d="M18.19,117.67a9.86,9.86,0,1,1-9.87,9.85v0a9.85,9.85,0,0,1,9.87-9.83Zm6.88,15.43a8.83,8.83,0,0,0-.61-11.89,8.89,8.89,0,0,0-13.23,11.84s.06-.05.07-.08a2,2,0,0,0,.08-.26,6.81,6.81,0,0,1,4.13-4.64,1.25,1.25,0,0,1,.81,0,4.06,4.06,0,0,0,3.29.11,1.9,1.9,0,0,1,1.92.2,11.43,11.43,0,0,1,1,.65,7.12,7.12,0,0,1,2.54,4.07Z"/>
  <path class="cls-6" d="M18.16,120.5a3.52,3.52,0,1,1-3.5,3.53v0a3.47,3.47,0,0,1,3.44-3.51Z"/>
</g>

<!-- Top-right user -->
<g id="user-tr">
  <circle id="ring-tr" cx="184" cy="97" r="10" fill="none" stroke="#24406b" stroke-width="0.5" opacity="0"/>
  <path class="cls-7" d="M190.63,97.47a6.93,6.93,0,1,1-6.95-6.9h0a6.92,6.92,0,0,1,6.94,6.9Zm-10,1.09c.23-.17.46-.33.71-.48a1.31,1.31,0,0,1,1.35-.13,2.85,2.85,0,0,0,2.32-.09.89.89,0,0,1,.56,0,4.84,4.84,0,0,1,2.91,3.27.48.48,0,0,0,.05.18l.05.06a6.25,6.25,0,1,0-9.73,0,5,5,0,0,1,1.78-2.88Z"/>
  <path class="cls-7" d="M183.71,92.53A2.48,2.48,0,1,0,186.17,95v0a2.44,2.44,0,0,0-2.42-2.46Z"/>
</g>

<!-- Bottom-right user -->
<g id="user-br">
  <circle id="ring-br" cx="172" cy="128" r="10" fill="none" stroke="#182a3f" stroke-width="0.5" opacity="0"/>
  <path class="cls-6" d="M182.31,127.5a9.86,9.86,0,1,1-9.88-9.83h0a9.84,9.84,0,0,1,9.87,9.82Zm-14.22,1.55a11.61,11.61,0,0,1,1-.65,1.88,1.88,0,0,1,1.91-.20,4.08,4.08,0,0,0,3.3-.11,1.1,1.1,0,0,1,.8,0,6.85,6.85,0,0,1,4.14,4.64,2,2,0,0,0,.07.26c0,.09,0,0,.07.08a8.83,8.83,0,0,0-.73-11.92,8.93,8.93,0,0,0-12.49.08,8.82,8.82,0,0,0-.62,11.89A7.07,7.07,0,0,1,168.09,129.05Z"/>
  <path class="cls-6" d="M172.47,120.5a3.52,3.52,0,1,0-.26,7,1.13,1.13,0,0,0,.26,0,3.52,3.52,0,0,0,0-7Z"/>
</g>

<!-- PANDA BODY -->
<g id="panda-body">

  <!-- Head group (tilting) -->
  <g id="head-group">

    <!-- Ear accents -->
    <path d="M26.61,41.49C24.15,26.2,38.67,19.48,38.8,19.4c10.7-5.11,21.42.86,21.86,1.11l.78.45L44.3,61.58l-1-.39C30.52,55.74,27.69,48.19,26.61,41.49Z"/>
    <path class="cls-7" d="M37.41,50.82a12.78,12.78,0,0,1,11.37-22.9"/>
    <path d="M168.52,41.17C171.39,26,157,18.86,156.88,18.8c-10.57-5.37-21.43.34-21.88.58l-.79.43,16.15,41,1-.37C164.28,55.31,167.3,47.82,168.52,41.17Z"/>
    <path class="cls-7" d="M155.5,50.82a12.79,12.79,0,0,0-11.38-22.9"/>

    <!-- Cap accents -->
    <path class="cls-6" d="M145.42,27.36s13.22,12,12.3,22l-2.93,2s-12.18-20.61-12.18-21.37,1.51-2.15,1.51-2.15Z"/>
    <path class="cls-6" d="M47.24,27.36s-13.22,12-12.3,22l3,2S50.08,30.83,50.08,30.07s-1.52-2.15-1.52-2.15Z"/>

    <!-- Headband -->
    <g id="headband">
      <path class="cls-7" d="M151.12,26.65s-53.26-49.5-109,0l4.64.48s46.35-47.89,99.39,0Z"/>
    </g>

    <!-- Face base -->
    <path class="cls-9" d="M168.52,101.3c-3.35,10.91-10.6,18.55-19.62,23.78a74.43,74.43,0,0,1-24.24,8.4c-12.22,2.18-24.15,4.08-36.58,2.73a238.9,238.9,0,0,1-38.79-8c-.8-.22-1.58-.48-2.4-.7-.23-.07-23-7.35-27.87-29.53-.14-.61-3.16-15.09,11-28.65l4.31-4.65c.78-.85.55-5.49.72-6.66a84.48,84.48,0,0,1,3.09-12.74C43.84,27.72,62.5,14.34,80.24,10.39a17.11,17.11,0,0,1,3.69-.59c1.12,0,1.39-.48,1.48-.64a3.59,3.59,0,0,0-.19-2.87,4.22,4.22,0,0,0-.28-.61A11.44,11.44,0,0,1,83.61,3.2c.12.47,2.12.8,2.55,1a6,6,0,0,1,2.12,1.64A9.37,9.37,0,0,1,89,6.93c.24.42.52,1.06,1.07,1.12s1.06-.44,1.44-.74a4.76,4.76,0,0,0,2-3.22c.16-1.41-.2-2.73-.12-4.09.48.48,1,1,1.51,1.4s1.10,1,1.66,1.49c.57-.47,1.12-1,1.68-1.49s1-1,1.52-1.4c-.18.15,0,1.68,0,2A15.77,15.77,0,0,0,99.93,4a6,6,0,0,0,1.6,3.44c1.37,1.32,2-.32,2.76-1.26A17.06,17.06,0,0,1,105.6,5c1-1,2.61-1.31,3.9-1.84a9.69,9.69,0,0,1-1.36,2.58c-.1.2-.2.41-.28.61a3.68,3.68,0,0,0-.19,2.87c.1.15.36.61,1.47.64,11.53.33,23.74,9.1,32.50,15.72,10.48,7.93,13.52,19.57,16,31.84,1.12,5.64,3.35,8,6.25,12.77a48.91,48.91,0,0,1,4.51,9.15A34.68,34.68,0,0,1,168.52,101.3Z"/>

    <!-- Face shadow -->
    <path class="cls-13" d="M168.28,79.39a49.36,49.36,0,0,0-4.49-9.14c-.68-1.12-1.32-2.10-1.91-3-.07.21-.13.42-.20.63A43.82,43.82,0,0,1,164.6,83.5c0,24.46-20.41,44.86-44.86,44.86a44.62,44.62,0,0,1-6.83-.55h0c-1.19.47-2.39.89-3.65,1.26-6.50,2-13.61,2.40-20.42,2.40a43.91,43.91,0,0,1-16.41-3.20c-1,.07-1.94.10-2.92.10-24.45,0-44.86-20.40-44.86-44.85a44.26,44.26,0,0,1,1-9.25c-9.09,12-6.77,23.30-6.65,23.84,4.87,22.17,27.65,29.46,27.88,29.53.79.24,1.59.48,2.39.70a241.38,241.38,0,0,0,38.80,8c12.44,1.35,24.35-.55,36.58-2.74a74.18,74.18,0,0,0,24.24-8.39c9-5.23,16.24-12.87,19.62-23.79A35.23,35.23,0,0,0,168.28,79.39Z"/>

    <!-- Mouth area -->
    <path class="cls-10" d="M104.34,87.93a2.81,2.81,0,0,0-2.09-1.75H89.51A2.64,2.64,0,0,0,87.3,89.9a4.2,4.2,0,0,0,1.2,1.57,10.61,10.61,0,0,0,14.55,0,4.15,4.15,0,0,0,1.18-1.57A3.4,3.4,0,0,0,104.34,87.93Z"/>
    <path class="cls-11" d="M98.84,88.06c.43-1-2.47-1-3.13-1s-2.65-.13-3.13.7S93.51,89,94,89.16c1.15.3,3.47.28,4.39-.56A1.74,1.74,0,0,0,98.84,88.06Z"/>

    <!-- EYES GROUP (blink) -->
    <g id="eyes-group">
      <!-- Right eye patch -->
      <path d="M111.62,79.15a43.08,43.08,0,0,1,16.46-4,82.64,82.64,0,0,1,20.84,1.39,18.35,18.35,0,0,0,2.39-12.66c-1.8-10.55-14.52-19.76-25.20-18.23l-1.16.18c-9.24,1.60-19.48,6.93-20.51,17.12a18.21,18.21,0,0,0,.19,4.89A18.67,18.67,0,0,0,111.62,79.15Z"/>
      <!-- Left eye patch -->
      <path d="M79.84,80.42c4.48-3.12,7.84-7.41,8.70-12.60a18.21,18.21,0,0,0,.19-4.89c-1-10.19-11.27-15.52-20.51-17.12l-1.16-.18c-10.68-1.53-23.40,7.65-25.20,18.23A18.34,18.34,0,0,0,44.68,77.2,56.53,56.53,0,0,1,79.84,80.42Z"/>
      <!-- Glasses bridge -->
      <path d="M112.49,73.26h-6c0-4.91-4.79-8.92-10.68-8.92s-10.68,4-10.68,8.92h-6c0-7.65,7.47-13.91,16.65-13.91S112.49,65.59,112.49,73.26Z"/>

      <!-- Eye whites + irises -->
      <path class="cls-12" d="M115.89,67.71a11.59,11.59,0,1,1,13.39,9.46,11.59,11.59,0,0,1-13.39-9.46Z"/>
      <path class="cls-10" d="M118.16,67.46a9.05,9.05,0,1,1,10.46,7.38,9,9,0,0,1-10.46-7.38Z"/>
      <path class="cls-12" d="M77,67.71a11.6,11.6,0,1,0-13.40,9.46h0A11.59,11.59,0,0,0,77,67.72Z"/>
      <path class="cls-10" d="M74.73,67.46a9.05,9.05,0,1,0-10.46,7.38h0a9,9,0,0,0,10.46-7.37Z"/>

      <!-- Pupils (look animation target) -->
      <g id="eye-pupils">
        <path class="cls-12" d="M120.10,72a2.27,2.27,0,1,1,2.63,1.85A2.28,2.28,0,0,1,120.10,72Z"/>
        <path class="cls-12" d="M73,71.54a2.27,2.27,0,1,0-2.63,1.85A2.28,2.28,0,0,0,73,71.54Z"/>
      </g>
    </g>

    <!-- WHISKERS -->
    <g id="whiskers-left">
      <path d="M47.87,85.15c2.23.16,4.46.25,6.69.25h1.88a2.73,2.73,0,0,0,.75-.07,2.88,2.88,0,0,0,.76-.22,2.12,2.12,0,0,0,.61-.37,1.37,1.37,0,0,0,.41-.42l.13-.30a.59.59,0,0,0-.15-.55l-.26-.20a2,2,0,0,0-.79-.19c-2.23,0-4.47,0-6.70-.12l-1.87-.11a2.36,2.36,0,0,0-.75.07,2.47,2.47,0,0,0-.76.22,2.34,2.34,0,0,0-.61.36,1.44,1.44,0,0,0-.42.43l-.13.30a.64.64,0,0,0,.15.55l.27.20a1.91,1.91,0,0,0,.79.19Z"/>
      <path d="M45.88,88.15q3.36.24,6.70.25h1.88a2.4,2.4,0,0,0,.75-.08A2.55,2.55,0,0,0,56,88.10a2.28,2.28,0,0,0,.60-.36,1.44,1.44,0,0,0,.42-.43l.13-.30a.61.61,0,0,0-.15-.55l-.26-.20a2,2,0,0,0-.79-.19c-2.23,0-4.47,0-6.70-.11-.62,0-1.25-.07-1.87-.12a2.69,2.69,0,0,0-.75.07,2.77,2.77,0,0,0-.76.22,2,2,0,0,0-.61.37,1.4,1.4,0,0,0-.42.42l-.12.30a.58.58,0,0,0,.15.55l.25.20a1.84,1.84,0,0,0,.79.19Z"/>
    </g>
    <g id="whiskers-right">
      <path d="M148,85.36c-2.24.16-4.47.25-6.70.25h-1.88a2.73,2.73,0,0,1-.75-.07,2.88,2.88,0,0,1-.76-.22,2,2,0,0,1-.60-.37,1.3,1.3,0,0,1-.42-.42l-.13-.30a.61.61,0,0,1,.15-.55l.26-.20a2,2,0,0,1,.79-.19c2.23,0,4.47,0,6.70-.12l1.87-.11a2.36,2.36,0,0,1,.75.07,2.47,2.47,0,0,1,.76.22,2.34,2.34,0,0,1,.61.36,1.44,1.44,0,0,1,.42.43l.13.30A.64.64,0,0,1,149,85l-.26.20a2,2,0,0,1-.79.19Z"/>
      <path d="M149.91,88.38c-2.23.16-4.46.25-6.70.25h-1.87a2.69,2.69,0,0,1-.75-.07,2.57,2.57,0,0,1-.76-.23,1.89,1.89,0,0,1-.61-.36,1.37,1.37,0,0,1-.41-.42l-.13-.30a.61.61,0,0,1,.15-.56l.25-.19a1.85,1.85,0,0,1,.80-.19q3.35.06,6.70-.12c.62,0,1.25-.07,1.87-.12a2.73,2.73,0,0,1,.75.07,2.9,2.9,0,0,1,.76.23,2.09,2.09,0,0,1,.61.36,1.4,1.4,0,0,1,.41.43l.13.30A.6.6,0,0,1,151,88l-.26.19a1.92,1.92,0,0,1-.79.20Z"/>
    </g>

  </g><!-- end head-group -->

  <!-- Feet -->
  <rect x="51.24" y="133.3" width="87.68" height="18.18"/>
  <rect x="119.74" y="128.36" width="11.74" height="14.37"/>
  <rect x="56.78" y="127.28" width="11.54" height="16.63"/>
  <line class="cls-1" x1="96.51" y1="86.53" x2="95.39" y2="86.42"/>
  <line class="cls-1" x1="95.39" y1="86.42" x2="94.26" y2="86.55"/>

  <!-- Shoes -->
  <polygon class="cls-8" points="43.88 127.14 62.55 127.51 62.27 144.71 46.27 142.74 43.88 127.14"/>
  <polygon class="cls-8" points="126.81 127.87 145.47 128.24 145.19 145.44 129.19 143.46 126.81 127.87"/>

</g><!-- end panda-body -->

<!-- PHONE GROUP (tilting) -->
<g id="phone-group">
  <g id="phone-screen">
    <rect class="cls-6" x="79.81" y="96.73" width="32.29" height="51.68" rx="5.74"/>
    <rect class="cls-14" x="82.54" y="98.63" width="26.83" height="46.75" rx="5.74"/>
    <circle class="cls-15" cx="95.95" cy="145.38" r="2.16"/>
  </g>

  <!-- Video icon (recording blink) -->
  <g id="video-icon">
    <path class="cls-6" d="M103.68,109.66v10.09a1.7,1.7,0,0,1-2,1.35H91.21a.85.85,0,0,0-.54.23c-.91.88-1.80,1.78-2.70,2.67a1.39,1.39,0,0,1-.27.21V109.66a1.78,1.78,0,0,1,1.35-1.34h13.28A1.76,1.76,0,0,1,103.68,109.66Zm-12.75,1.86v6.36H97.3v-2.52l3.16,2.53v-6.36l-3.19,2.54v-2.55Z"/>
    <path class="cls-14" d="M90.93,111.52h6.34v2.55l3.19-2.54v6.36l-3.16-2.53v2.52H90.93Z"/>
  </g>
</g>

<!-- HANDS (grip animation) -->
<g id="hand-left">
  <path class="cls-8" d="M83.70,123.52A28.83,28.83,0,0,0,72,119.89c-5.05-.25-8.58,2.39-13.06,4a43.85,43.85,0,0,1-4.59,1.36,28.51,28.51,0,0,1-5.08,1.07A14.13,14.13,0,0,1,41,124.23l-1.29-.80s-4.39-2.34-5.80-3.27-.75,4.86-.75,4.86.48,6.82.66,8.61a.17.17,0,0,0,.08.17,30.4,30.4,0,0,0,1,4.43c1.59,5.27,4.93,10.15,10.18,12.39A17.3,17.3,0,0,0,50,151.9c7.32.84,13.16-1.51,20-3.43,4.65-1.31,9.57-2,14-4C93.58,139.9,93.63,128.71,83.70,123.52Z"/>
</g>
<g id="hand-right">
  <path class="cls-8" d="M103.79,124.27a28.93,28.93,0,0,1,11.69-3.63c5-.25,8.59,2.39,13.07,4a47.52,47.52,0,0,0,4.59,1.36,27.47,27.47,0,0,0,5.08,1.06,14.1,14.1,0,0,0,8.29-2.14l1.29-.79s4.39-2.34,5.80-3.27.74,4.85.74,4.85-.48,6.83-.65,8.62c0,.10,0,.15-.08.16a30.53,30.53,0,0,1-1,4.44c-1.59,5.26-4.93,10.15-10.18,12.39a17.55,17.55,0,0,1-4.94,1.28c-7.32.84-13.16-1.52-20-3.44-4.65-1.30-9.57-2-14-4C93.92,140.65,93.87,129.46,103.79,124.27Z"/>
</g>

</g>
</svg>
